<?xml version="1.0" standalone="yes"?>
<svg xmlns="http://www.w3.org/2000/svg" width="866" height="650">
<path style="fill:#fffffe; stroke:none;" d="M0 0L0 650L866 650L866 0L0 0z"/>
<path style="fill:#e29453; stroke:none;" d="M672 231L673 231C676.072 218.078 691.823 214.428 698.427 227.004C702.362 234.498 695.722 243.138 704.105 249.297C709.537 253.288 713.688 250.141 719.424 249.792C728.24 249.256 735.618 255.981 738 264C743.956 243.586 711.352 252.597 705.105 247.566C696.961 241.008 703.618 230.98 698.03 223.105C690.04 211.844 672.712 217.999 672 231z"/>
<path style="fill:#ec7a1d; stroke:none;" d="M685 218.562C675.945 219.574 669.855 229.791 674.304 237.995C680.256 248.97 693.017 241.323 700.775 249.214C705.614 254.136 703.499 259.015 703.091 265C702.703 270.705 705.337 276.683 702.347 281.985C693.303 298.024 672.262 282.735 664.367 301C659.692 311.817 668.247 324.555 680 324.656C703.358 324.857 691.244 302.036 699.514 291.09C701.892 287.942 706.002 284.795 710 284.267C717.962 283.216 723.255 287.311 730.985 282.182C742.95 274.243 739.981 255.742 727 250.816C718.704 247.667 710.111 254.567 703.214 247.775C694.954 239.643 704.834 216.344 685 218.562z"/>
<path style="fill:#e29453; stroke:none;" d="M684 224C672.342 234.683 688.573 245.496 694 232L693 232C690.312 235.997 680.703 241.076 680.635 231.988C680.611 228.765 684.097 227.046 684 224M686 225L692 230C692.555 226.143 689.376 225.005 686 225z"/>
<path style="fill:#fffffe; stroke:none;" d="M685.018 226.072C677.264 227.714 680.17 239.337 687.895 237.522C695.323 235.777 692.397 224.51 685.018 226.072z"/>
<path style="fill:#e29453; stroke:none;" d="M672 232L672 237L673 237L672 232M673 237L679 244L673 237M679 244L679 245C689.911 249.079 699.094 243.962 704 258C708.101 244.087 686.944 245.004 679 244M716 255L716 256L719 256L716 255z"/>
<path style="fill:#fffffe; stroke:none;" d="M719 255.573C704.401 257.664 707.23 280.868 722 278.655C736.847 276.431 733.618 253.479 719 255.573z"/>
<path style="fill:#e29453; stroke:none;" d="M722 255L722 256L725 256L722 255M714 256L715 257L714 256M726 256L727 257L726 256M713 257L714 258L713 257M727 257C731.757 264.322 732.581 267.924 729 276C736.104 271.85 733.638 260.275 727 257M703 258L701 284L702 284C704.811 278.159 705.169 264.047 703 258M712 258L713 259L712 258M710 259L709 263L710 263L712 259L710 259M717.044 259.742C707.114 263.767 714.378 279.132 723.956 275.138C733.931 270.979 727.321 255.577 717.044 259.742z"/>
<path style="fill:#ec7a1d; stroke:none;" d="M717.019 261.078C709.002 265.711 715.812 278.023 723.941 273.806C732.436 269.4 725.344 256.267 717.019 261.078z"/>
<path style="fill:#e29453; stroke:none;" d="M718.667 261.333L719.333 261.667L718.667 261.333M708 263L708 271L709 271L708 263M739 266L738 274L739 274L739 266M709 272L712 276L709 272M737.333 274.667L737.667 275.333L737.333 274.667M712 276L715 278L712 276M728 276L729 277L728 276M736.333 276.667L736.667 277.333L736.333 276.667M717 279L717 280L728 277L717 279M715.667 278.333L716.333 278.667L715.667 278.333M735 278L736 279L735 278M734 279L733 281L735 281L734 279M704 281L705 282L704 281M732 281L733 282L732 281M731 282L732 283L731 282M726 284L726 285L731 284L726 284M700 284L701 285L700 284M707 284L707 285L715 285L707 284M699 285L698 287L700 287L699 285M705.667 285.333L706.333 285.667L705.667 285.333M715 285L715 286L719 286L715 285M723 285L723 286L726 286L723 285M704 286L705 287L704 286M697 287L698 288L697 287M703 287L704 288L703 287M695.667 288.333L696.333 288.667L695.667 288.333M694 319L695 319L703 288C694.398 292.3 696.472 310.335 694 319M677 289L677 290L683 290L677 289M685 290L685 291L695 290L685 290M672 291L672 292L676 291L672 291M670.667 292.333L671.333 292.667L670.667 292.333M663 303L664 303L670 293C665.649 295.14 663.853 298.29 663 303M662 304L662 311L663 311L662 304M525 306L525 369C525 374.794 522.642 386.526 528 390L526 362L526 307L534 308L525 306z"/>
<path style="fill:#ec7a1d; stroke:none;" d="M526 307L526 343C526 354.93 521.895 375.921 526.603 386.856C530.022 394.797 547.093 391.684 552.996 389.12C573.682 380.135 579.154 340.575 553 334.529C546.401 333.004 540.41 334.915 534 336C533.787 326.643 538.402 307.147 526 307z"/>
<path style="fill:#e29453; stroke:none;" d="M533 311L533 314L534 314L533 311M663.333 312.667L663.667 313.333L663.333 312.667M664 314L665 318L666 318L664 314M666 318L667 319L666 318M648 319C639.695 322.22 640 325.556 640 334L631 334L631 342L640 342C640 355.916 632.976 391.516 653 392L653 391C634.427 389.6 641 353.938 641 341L632 341L632 335L641 335C641 327.987 640.498 323.38 648 321C648 335.182 651.615 335 665 335C661.101 342.273 651.356 338.01 648.603 343.434C645.025 350.484 647.677 367.106 648.039 375C648.178 378.029 648.472 382.009 651.303 383.82C655.501 386.506 660.918 383.358 665 382L666 387L659 390L659 391C665.18 389.163 668.259 386.171 665 380C661.599 381.395 656.874 384.548 653.144 382.728C650.291 381.335 649.502 377.871 649.174 375C648.379 368.03 646.22 350.251 650.179 344.318C654.929 337.199 664.715 346.422 666 334L650 334L648 319M667 319L672 323L672 322L667 319M693 319L694 320L693 319M689 323L693 320L689 323z"/>
<path style="fill:#ec7a1d; stroke:none;" d="M641 335L632 335L632 341L641 341C641 353.955 633.903 394.958 656 391.227C659.592 390.62 662.745 388.511 666 387L665 382C660.734 382.911 655.372 386.439 651.303 383.254C644.806 378.169 648 360.333 648 353C648 350.132 647.304 345.938 649.028 343.434C653.234 337.322 661.832 344.017 665 335C652.133 335 648 334.746 648 321C639.978 322.77 641 327.894 641 335z"/>
<path style="fill:#e29453; stroke:none;" d="M672.667 323.333L673.333 323.667L672.667 323.333M687.667 323.333L688.333 323.667L687.667 323.333M533 324L534 325L533 324M674 324L674 325L687 325L674 324M533 330L534 331L533 330M106 331L106 332L113 332L106 331M243 331L243 332L249 332L243 331M101 332L102 333L101 332z"/>
<path style="fill:#5e5e5f; stroke:none;" d="M102 332L102 333L105 333L102 332z"/>
<path style="fill:#070809; stroke:none;" d="M105 332.44C99.1031 333.385 84.6005 339.029 87.7083 347.682C92.3035 360.477 113.024 330.7 115.418 349.981C116.253 356.701 93.9173 357.842 89.3935 363.105C81.4994 372.289 84.481 389.55 98 390.895C105.406 391.632 110.743 385.88 116.91 386.039C120.156 386.123 121.521 390.505 125.015 390.079C137.275 388.584 130.036 374.847 130.001 368C129.907 349.936 130.02 328.429 105 332.44z"/>
<path style="fill:#5e5e5f; stroke:none;" d="M114 332L114 333L117 333L114 332z"/>
<path style="fill:#e29453; stroke:none;" d="M117 332L118 333L117 332M165 332L166 333L165 332z"/>
<path style="fill:#5e5e5f; stroke:none;" d="M166 332L166 333L173 333L166 332z"/>
<path style="fill:#e29453; stroke:none;" d="M173 332L174 333L173 332M193 332L194 333L193 332z"/>
<path style="fill:#5e5e5f; stroke:none;" d="M194 332L194 333L201 333L194 332z"/>
<path style="fill:#e29453; stroke:none;" d="M201 332L202 333L201 332M237 332L238 333L237 332z"/>
<path style="fill:#5e5e5f; stroke:none;" d="M238 332L238 333L242 333L238 332z"/>
<path style="fill:#070809; stroke:none;" d="M235 351C241.332 340.051 251.884 342.138 252 355C245.158 355.294 237.212 356.07 231.004 359.139C206.783 371.114 234.014 406.898 253 384C257.539 388.808 266.862 393.476 269.173 382.91C269.934 379.428 266.652 375.484 266.188 372C264.804 361.603 270.108 344.375 260.786 336.649C253.171 330.337 239.013 330.78 231.004 335.97C227.998 337.918 221.317 344.155 224.121 348.397C225.759 350.875 232.289 350.497 235 351z"/>
<path style="fill:#5e5e5f; stroke:none;" d="M250 332L250 333L253 333L250 332z"/>
<path style="fill:#e29453; stroke:none;" d="M253 332L254 333L253 332M341.667 332.333L342.333 332.667L341.667 332.333z"/>
<path style="fill:#5e5e5f; stroke:none;" d="M343 332L343 333L350 333L343 332z"/>
<path style="fill:#e29453; stroke:none;" d="M350.667 332.333L351.333 332.667L350.667 332.333M401.667 332.333L402.333 332.667L401.667 332.333z"/>
<path style="fill:#5e5e5f; stroke:none;" d="M403 332L403 333L409 333L403 332z"/>
<path style="fill:#e29453; stroke:none;" d="M409.667 332.333L410.333 332.667L409.667 332.333z"/>
<path style="fill:#5e5e5f; stroke:none;" d="M98.6667 333.333L99.3333 333.667L98.6667 333.333M118.667 333.333L119.333 333.667L118.667 333.333z"/>
<path style="fill:#e29453; stroke:none;" d="M120 333L121 334L120 333M142 333L143 334L142 333z"/>
<path style="fill:#5e5e5f; stroke:none;" d="M156 391L156 390L143 390L143 334L155 334L157 341C155.719 335.891 148.623 327.539 143.028 334.603C140.954 337.221 142 342.878 142 346L142 377C142 380.328 140.825 386.615 143.028 389.397C145.37 392.355 152.65 391 156 391z"/>
<path style="fill:#e29453; stroke:none;" d="M162 333L163 334L162 333z"/>
<path style="fill:#5e5e5f; stroke:none;" d="M163 333L164 334L163 333z"/>
<path style="fill:#070809; stroke:none;" d="M155 341L155 334L143 334L143 390L156 390L156 372C156 365.306 154.437 356.192 157.573 350.044C160.806 343.703 167.809 345.669 169.566 352.004C172.161 361.356 164.994 380.778 171.028 388.397C173.37 391.355 180.65 390 184 390C184 378.496 182.96 366.445 184.105 355C184.501 351.039 187.059 345.359 191.999 346.137C196.819 346.895 197.92 351.971 197.995 356C198.208 367.325 198 378.673 198 390C201.35 390 208.629 391.355 210.972 388.397C213.175 385.615 212 379.328 212 376C212 365.358 215.528 346.076 208.196 337.329C201.398 329.22 187.252 332.518 184 342L182 342C176.943 327.175 163.151 333.978 155 341z"/>
<path style="fill:#5e5e5f; stroke:none;" d="M174.667 333.333L175.333 333.667L174.667 333.333z"/>
<path style="fill:#e29453; stroke:none;" d="M190 333L191 334L190 333z"/>
<path style="fill:#5e5e5f; stroke:none;" d="M191 333L192 334L191 333M203 333L204 334L203 333z"/>
<path style="fill:#e29453; stroke:none;" d="M234 333L235 334L234 333z"/>
<path style="fill:#5e5e5f; stroke:none;" d="M235 333L236 334L235 333M254.667 333.333L255.333 333.667L254.667 333.333z"/>
<path style="fill:#e29453; stroke:none;" d="M256 333L257 334L256 333M279 333L280 334L279 333z"/>
<path style="fill:#5e5e5f; stroke:none;" d="M279 334L279 335C289.864 332.414 306.136 332.414 317 335C310.295 329.92 286.974 331.643 279 334z"/>
<path style="fill:#e29453; stroke:none;" d="M316 333L317 334L316 333M338 333L339 334L338 333z"/>
<path style="fill:#5e5e5f; stroke:none;" d="M339.667 333.333L340.333 333.667L339.667 333.333z"/>
<path style="fill:#070809; stroke:none;" d="M341 333.529C312.59 340.095 319.782 399.05 352 390.956C380.97 383.678 373.909 325.924 341 333.529z"/>
<path style="fill:#5e5e5f; stroke:none;" d="M352 333L352 334L355 334L352 333M378 334L378 335L390 334L378 334z"/>
<path style="fill:#e29453; stroke:none;" d="M390 333L391 334L390 333M399 333L400 334L399 333z"/>
<path style="fill:#5e5e5f; stroke:none;" d="M400 333L401 334L400 333z"/>
<path style="fill:#070809; stroke:none;" d="M391 342L391 334L379.028 335.603L378 347L378 376L379.028 388.397L392 390C392 378.769 390.332 366.057 392.329 355C393.004 351.264 395.477 345.867 399.988 345.867C404.476 345.867 406.357 351.385 406.815 355C408.25 366.338 407 378.572 407 390L420 390C420 375.348 423.303 356.069 419.057 342.001C416.619 333.921 406.446 330.491 399.09 334.457C395.846 336.206 393.721 339.595 391 342z"/>
<path style="fill:#5e5e5f; stroke:none;" d="M411 333L412 334L411 333z"/>
<path style="fill:#e29453; stroke:none;" d="M412 333L413 334L412 333M446 339C444.881 333.87 441.704 334.017 437 334L437 391L447 391C446.866 380.278 442.857 358.499 448.179 349.185C453.754 339.428 464.581 346.488 468 334C459.008 331.859 453.714 334.723 446 339M513 344L512 344C515.921 355.764 519.019 366.1 513.095 378C505.419 393.418 483.928 395.397 473.394 381.996C461.355 366.682 466.794 337.86 488 334.326C498.387 332.594 503.773 338.373 512 343C502.632 329.82 482.072 329.39 471.939 342.171C463.91 352.297 463.86 370.157 470.479 380.996C478.829 394.668 501.253 396.26 511.326 383.674C520.142 372.659 519.721 355.824 513 344M534 335L534 336L556 335C550.067 330.947 540.426 332.963 534 335M597 333L597 334L612 336C608.741 331.719 601.896 333 597 333M695 358L696 358C697.134 346.701 705.726 336.551 717 334.376C724.52 332.925 735.301 333.833 736 343C728.599 340.593 720.418 338.062 713.015 342.05C700.689 348.69 698.911 371.302 709.133 380.657C715.317 386.317 723.558 385.134 730.995 383.554C732.48 383.239 735.793 382.56 735.793 385.083C735.793 389.818 725.242 390.698 722 390.91C709.939 391.696 701.137 383.79 697 373L696 373C698.23 385.501 708.953 392.081 721 391.995C728.629 391.941 740.682 389.968 736 380C729.212 381.937 723.189 385.385 716 382.736C700.968 377.197 700.07 353.538 712.043 344.51C719.995 338.514 728.722 342.204 737 345C736.99 332.27 724.91 330.948 714 333.761C702.921 336.618 695.514 346.784 695 358M745 345L746 345C750.063 334.543 774.6 326.822 777 342C773.641 341.111 770.506 340.117 767 340.015C759.261 339.791 746.878 343.959 755.434 353.671C763.002 362.262 785.773 365.276 776.583 381.996C771.5 391.243 741.476 396.726 745 382C752.616 385.822 765.443 388.115 770 379L769 379C761.417 387.15 753.245 382.591 744 381L741 388C754.123 394.915 785.707 393.512 779.056 371C775.54 359.097 761.552 360.1 755.608 350.957C747.271 338.131 772.131 342.185 777 344C781.829 327.477 748.022 330.03 745 345z"/>
<path style="fill:#5e5e5f; stroke:none;" d="M96.6667 334.333L97.3333 334.667L96.6667 334.333M121 334L122 335L121 334z"/>
<path style="fill:#e29453; stroke:none;" d="M122 334L123 335L122 334z"/>
<path style="fill:#5e5e5f; stroke:none;" d="M161 334L162 335L161 334M177 334L178 335L177 334z"/>
<path style="fill:#e29453; stroke:none;" d="M188 334L189 335L188 334z"/>
<path style="fill:#5e5e5f; stroke:none;" d="M189 334L190 335L189 334M205 334L206 335L205 334z"/>
<path style="fill:#e29453; stroke:none;" d="M232 334L233 335L232 334z"/>
<path style="fill:#5e5e5f; stroke:none;" d="M233 334L234 335L233 334M257.667 334.333L258.333 334.667L257.667 334.333z"/>
<path style="fill:#070809; stroke:none;" d="M279 344L299 345C290.599 357.35 273.206 372.782 278 389C293.443 385.34 301.489 384.768 317 389C321.354 374.269 308.1 373.403 297 372C301.67 364.5 320.996 345.803 316.396 336.318C314.54 332.491 306.452 334 303 334C291.993 334 279.011 329.952 279 344z"/>
<path style="fill:#e29453; stroke:none;" d="M317 334L317 343L318 343L317 334z"/>
<path style="fill:#5e5e5f; stroke:none;" d="M336.667 334.333L337.333 334.667L336.667 334.333M356 334L357 335L356 334M391 334L393 342L391 334z"/>
<path style="fill:#e29453; stroke:none;" d="M397 334L398 335L397 334z"/>
<path style="fill:#5e5e5f; stroke:none;" d="M398 334L399 335L398 334M413 334L414 335L413 334z"/>
<path style="fill:#e29453; stroke:none;" d="M414 334L415 335L414 334z"/>
<path style="fill:#ec7a1d; stroke:none;" d="M445 341C444.53 338.745 442.078 332.928 439.024 336.623C436.555 339.609 438 347.351 438 351C438 361.297 432.559 389.841 446 390C445.735 378.372 442.849 361.161 446.028 350.093C448.632 341.026 459.474 345.286 463.986 340.397C467.393 336.707 463.824 333.936 459.995 334.193C454.203 334.582 449.908 338.366 445 341M486 334.518C454.616 341.226 464.014 398.259 498 390.541C529.02 383.496 519.843 327.284 486 334.518z"/>
<path style="fill:#e29453; stroke:none;" d="M595 391L595 390L592 387C568.453 381.625 576.847 340.689 596 335C588.395 332.526 581.35 342.913 579.094 349C573.749 363.421 577.156 387.547 595 391z"/>
<path style="fill:#ec7a1d; stroke:none;" d="M592 387C592.513 390.88 597.484 391.221 601 391.528C609.949 392.308 618.99 387.655 623.565 380C630.233 368.842 629.277 352.21 621.106 342.134C611.635 330.455 592.415 331.444 583.324 343C576.354 351.861 576.536 366.96 580.611 377C582.582 381.857 586.403 387.516 592 387z"/>
<path style="fill:#e29453; stroke:none;" d="M678 391C671.643 375.998 676 352.214 676 336C684.349 335.873 683 342.41 683 349L683 390L679 390L679 391L684 391L684 369L684 354C684 349.004 685.6 340.737 683.667 336.111C682.426 333.142 676.574 333.142 675.333 336.111C671.307 345.748 675 364.496 675 375C675 379.385 672.851 389.897 678 391z"/>
<path style="fill:#ec7a1d; stroke:none;" d="M736 343C735.487 327.379 709.104 334.057 702.519 342.04C694.435 351.84 692.549 366.727 698.714 378C704.817 389.159 723.138 396.807 734.677 387.911C736.74 386.321 737.099 382.918 733.851 382.694C725.327 382.106 719.309 387.68 711.018 381.431C698.677 372.129 700.454 349.248 714.004 342.05C721.431 338.105 728.528 341.271 736 343M745 382C739.688 395.425 770.582 392.204 776.005 383.957C787.864 365.924 763.361 362.37 755.434 352.815C747.934 343.775 759.699 339.648 767 340.043C770.428 340.229 773.638 341.431 777 342C775.903 327.797 749.497 333.121 745.855 344.001C739.994 361.507 764.332 361.849 769.503 373.015C776.474 388.069 751.357 384.369 745 382z"/>
<path style="fill:#5e5e5f; stroke:none;" d="M94 335L95 336L94 335M123 335L124 336L123 335z"/>
<path style="fill:#e29453; stroke:none;" d="M141 335L141 390L142 390L142 353L141 335M159 335L160 336L159 335z"/>
<path style="fill:#5e5e5f; stroke:none;" d="M160 335L161 336L160 335M178 335L179 336L178 335z"/>
<path style="fill:#e29453; stroke:none;" d="M187 335L188 336L187 335z"/>
<path style="fill:#5e5e5f; stroke:none;" d="M206 335L207 336L206 335z"/>
<path style="fill:#e29453; stroke:none;" d="M230 335L231 336L230 335z"/>
<path style="fill:#5e5e5f; stroke:none;" d="M231 335L232 336L231 335M259 335L260 336L259 335z"/>
<path style="fill:#e29453; stroke:none;" d="M260 335L261 336L260 335M334 335L335 336L334 335z"/>
<path style="fill:#5e5e5f; stroke:none;" d="M335 335L336 336L335 335M358 335L359 336L358 335z"/>
<path style="fill:#e29453; stroke:none;" d="M396 335L397 336L396 335z"/>
<path style="fill:#5e5e5f; stroke:none;" d="M415 335L416 336L415 335z"/>
<path style="fill:#e29453; stroke:none;" d="M556 335L556 336L560 337L560 336L556 335M613.667 335.333L614.333 335.667L613.667 335.333z"/>
<path style="fill:#ec7a1d; stroke:none;" d="M676 336L676 377C676 383.508 674.6 390.433 683 390L683 349C683 342.435 684.752 334.841 676 336z"/>
<path style="fill:#e29453; stroke:none;" d="M92 336L91 338L92 336z"/>
<path style="fill:#5e5e5f; stroke:none;" d="M93 336L94 337L93 336M124 336L125 337L124 336M159 336L160 337L159 336M179 336L180 337L179 336z"/>
<path style="fill:#e29453; stroke:none;" d="M186 336L187 337L186 336M208 336L210 338L208 336z"/>
<path style="fill:#5e5e5f; stroke:none;" d="M229 336L230 337L229 336z"/>
<path style="fill:#e29453; stroke:none;" d="M261 336L262 337L261 336M278 336L278 342L279 342L278 336z"/>
<path style="fill:#5e5e5f; stroke:none;" d="M333 336L334 337L333 336M359 336L360 337L359 336M395 336L393 340L395 336M416 336L417 337L416 336z"/>
<path style="fill:#e29453; stroke:none;" d="M615 336L616 337L615 336z"/>
<path style="fill:#5e5e5f; stroke:none;" d="M92 337L93 338L92 337M125 337L126 338L125 337M158 337L159 338L158 337M180 337L181 338L180 337M185 337L186 338L185 337M208 337L209 338L208 337M228 337L229 338L228 337z"/>
<path style="fill:#e29453; stroke:none;" d="M262 337L263 338L262 337z"/>
<path style="fill:#5e5e5f; stroke:none;" d="M332 337L333 338L332 337M360 337L361 338L360 337z"/>
<path style="fill:#e29453; stroke:none;" d="M361 337L362 338L361 337M394 337L395 338L394 337z"/>
<path style="fill:#5e5e5f; stroke:none;" d="M417 337L418 338L417 337z"/>
<path style="fill:#e29453; stroke:none;" d="M560 337L569 351L570 351C568.896 344.812 565.771 339.716 560 337M616 337L620 340L616 337M90 338L91 339L90 338z"/>
<path style="fill:#5e5e5f; stroke:none;" d="M157 338L158 339L157 338z"/>
<path style="fill:#e29453; stroke:none;" d="M181 338L182 339L181 338M184 338L185 339L184 338z"/>
<path style="fill:#5e5e5f; stroke:none;" d="M209 338L210 339L209 338M227 338L228 339L227 338z"/>
<path style="fill:#e29453; stroke:none;" d="M263 338L265 340L263 338z"/>
<path style="fill:#5e5e5f; stroke:none;" d="M331 338L332 339L331 338z"/>
<path style="fill:#e29453; stroke:none;" d="M362 338L363 339L362 338M393 338L394 339L393 338M418 338L419 339L418 338z"/>
<path style="fill:#5e5e5f; stroke:none;" d="M90 339L91 340L90 339M127 339L128 340L127 339M181 339L182 340L181 339M184 339L185 340L184 339z"/>
<path style="fill:#e29453; stroke:none;" d="M210 339L211 340L210 339z"/>
<path style="fill:#5e5e5f; stroke:none;" d="M226 339L227 340L226 339M263 339L264 340L263 339z"/>
<path style="fill:#e29453; stroke:none;" d="M363 339L364 340L363 339z"/>
<path style="fill:#5e5e5f; stroke:none;" d="M418 339L419 340L418 339z"/>
<path style="fill:#e29453; stroke:none;" d="M586 358L587 358C588.255 345.747 602.115 334.835 612.671 345.329C619.915 352.531 619.167 362.764 618 372C633.865 345.515 586.719 324.418 586 358z"/>
<path style="fill:#5e5e5f; stroke:none;" d="M89 340L90 341L89 340z"/>
<path style="fill:#e29453; stroke:none;" d="M128 340L129 341L128 340M182.667 340.333L183.333 340.667L182.667 340.333z"/>
<path style="fill:#5e5e5f; stroke:none;" d="M210 340L211 341L210 340z"/>
<path style="fill:#e29453; stroke:none;" d="M225 340L226 341L225 340z"/>
<path style="fill:#5e5e5f; stroke:none;" d="M264 340L265 346L266 346L264 340M329 340L330 341L329 340M363 340L364 341L363 340z"/>
<path style="fill:#e29453; stroke:none;" d="M392 340L393 341L392 340M419 340L420 341L419 340M475 361L476 361C476.436 340.544 500.787 333.489 507 355C510.407 345.148 496.898 339.021 489 340.213C478.38 341.816 475.027 351.48 475 361M534 344C545.6 341.348 555.925 341.065 561 354C564.379 341.637 540.624 335.809 534 344M620 340L626 352L627 352L620 340M88 341L87 344L88 344L88 341z"/>
<path style="fill:#5e5e5f; stroke:none;" d="M128 341L129 342L128 341M182.667 341.333L183.333 341.667L182.667 341.333z"/>
<path style="fill:#e29453; stroke:none;" d="M211 341L212 342L211 341M265 341L266 342L265 341M328 341L329 342L328 341z"/>
<path style="fill:#5e5e5f; stroke:none;" d="M364 341L365 342L364 341M419 341L419 344L420 344L419 341z"/>
<path style="fill:#fffffe; stroke:none;" d="M487 341.653C467.634 347.727 473.591 390.34 496 383.347C516.141 377.063 510.508 334.279 487 341.653M598 341.653C578.206 347.868 584.155 389.946 607 383.427C627.23 377.655 621.341 334.324 598 341.653z"/>
<path style="fill:#5e5e5f; stroke:none;" d="M88 342L89 343L88 342M211 342L211 347L212 347L211 342M224 342L225 343L224 342z"/>
<path style="fill:#e29453; stroke:none;" d="M327 342L328 343L327 342M365 342L366 343L365 342z"/>
<path style="fill:#fffffe; stroke:none;" d="M534 383C538.753 383.601 543.277 384.475 548 383.057C562.924 378.577 567.818 353.852 554.982 344.514C550.842 341.503 537.456 339.608 534.603 345.419C532.418 349.871 534 358.116 534 363L534 383z"/>
<path style="fill:#5e5e5f; stroke:none;" d="M104.667 343.333L105.333 343.667L104.667 343.333z"/>
<path style="fill:#e29453; stroke:none;" d="M106 343L106 344L110 344L106 343z"/>
<path style="fill:#5e5e5f; stroke:none;" d="M110.667 343.333L111.333 343.667L110.667 343.333z"/>
<path style="fill:#e29453; stroke:none;" d="M129 343L130 344L129 343z"/>
<path style="fill:#5e5e5f; stroke:none;" d="M240 343L240 344L243 344L240 343z"/>
<path style="fill:#e29453; stroke:none;" d="M243 343L244 344L243 343M245 343L246 344L245 343z"/>
<path style="fill:#5e5e5f; stroke:none;" d="M246.667 343.333L247.333 343.667L246.667 343.333M316 343L317 344L316 343M327 343L328 344L327 343M344 343L344 344L349 344L344 343M365 343L366 344L365 343z"/>
<path style="fill:#e29453; stroke:none;" d="M420.333 343.667L420.667 344.333L420.333 343.667z"/>
<path style="fill:#5e5e5f; stroke:none;" d="M87 344L88 345L87 344z"/>
<path style="fill:#e29453; stroke:none;" d="M103 344L104 345L103 344z"/>
<path style="fill:#5e5e5f; stroke:none;" d="M112 344L113 345L112 344M129 344L129 347L130 347L129 344M223.333 344.667L223.667 345.333L223.333 344.667M239 344L240 345L239 344z"/>
<path style="fill:#e29453; stroke:none;" d="M248 344L251 347L248 344z"/>
<path style="fill:#5e5e5f; stroke:none;" d="M249 344L250 345L249 344z"/>
<path style="fill:#e29453; stroke:none;" d="M266 344L266 348L267 348L266 344z"/>
<path style="fill:#5e5e5f; stroke:none;" d="M279 344L279 345L289 345L279 344M290 344L290 345L293 345L290 344M294.667 344.333L295.333 344.667L294.667 344.333M297 344L296 349L297 349L297 344z"/>
<path style="fill:#e29453; stroke:none;" d="M316 344L317 345L316 344M326 344L327 345L326 344z"/>
<path style="fill:#5e5e5f; stroke:none;" d="M342 344L341 346L342 344z"/>
<path style="fill:#e29453; stroke:none;" d="M343 344L341 347L343 344z"/>
<path style="fill:#fffffe; stroke:none;" d="M344.109 345.032C336.528 349.14 338.11 366.172 340.174 372.999C341.443 377.194 345.002 381.552 349.786 378.816C357.396 374.467 355.175 357.936 353.467 351.001C352.42 346.752 348.86 342.458 344.109 345.032z"/>
<path style="fill:#5e5e5f; stroke:none;" d="M350 344L351 345L350 344M366 344L367 348L368 348L366 344z"/>
<path style="fill:#e29453; stroke:none;" d="M86.3333 345.667L86.6667 346.333L86.3333 345.667z"/>
<path style="fill:#5e5e5f; stroke:none;" d="M101 345L102 346L101 345z"/>
<path style="fill:#e29453; stroke:none;" d="M102 345L103 346L102 345z"/>
<path style="fill:#5e5e5f; stroke:none;" d="M113 345L114 346L113 345M158 347L158 348L165 346L158 347M190 345L190 346L193 346L190 345M238 345L239 346L238 345M250 345L251 346L250 345z"/>
<path style="fill:#e29453; stroke:none;" d="M297 345L298 346L297 345z"/>
<path style="fill:#5e5e5f; stroke:none;" d="M315 345L316 346L315 345M326 345L327 346L326 345z"/>
<path style="fill:#e29453; stroke:none;" d="M351 345L352 346L351 345M367 345L368 346L367 345z"/>
<path style="fill:#5e5e5f; stroke:none;" d="M393 352L394 352L402 346C397.299 344.391 394.455 347.824 393 352M420 345L420 390L407 390L407 391L419.972 389.397L421 378L420 345z"/>
<path style="fill:#e29453; stroke:none;" d="M101 346L102 347L101 346z"/>
<path style="fill:#5e5e5f; stroke:none;" d="M114 346L115 347L114 346z"/>
<path style="fill:#e29453; stroke:none;" d="M161 346L162 347L161 346M165 346L166 347L165 346z"/>
<path style="fill:#5e5e5f; stroke:none;" d="M166 346L167 347L166 346M188 346L189 347L188 346z"/>
<path style="fill:#e29453; stroke:none;" d="M189.667 346.333L190.333 346.667L189.667 346.333M192.667 346.333L193.333 346.667L192.667 346.333z"/>
<path style="fill:#5e5e5f; stroke:none;" d="M194 346L195 347L194 346z"/>
<path style="fill:#e29453; stroke:none;" d="M212 346L211 391L212 391C214.992 380.877 216.091 355.75 212 346z"/>
<path style="fill:#5e5e5f; stroke:none;" d="M237 346L236 349L237 349L237 346M314 346L315 347L314 346z"/>
<path style="fill:#e29453; stroke:none;" d="M325 346L326 347L325 346z"/>
<path style="fill:#5e5e5f; stroke:none;" d="M352 346L353 347L352 346z"/>
<path style="fill:#e29453; stroke:none;" d="M398 346L399 347L398 346M402 346L403 347L402 346z"/>
<path style="fill:#5e5e5f; stroke:none;" d="M403 346L404 347L403 346z"/>
<path style="fill:#e29453; stroke:none;" d="M744 346L744 350L745 350L744 346z"/>
<path style="fill:#5e5e5f; stroke:none;" d="M86 347L88 350L86 347M100 347L101 348L100 347z"/>
<path style="fill:#e29453; stroke:none;" d="M114.333 347.667L114.667 348.333L114.333 347.667M159 347L160 348L159 347M167 347L168 348L167 347z"/>
<path style="fill:#5e5e5f; stroke:none;" d="M186 347L187 348L186 347z"/>
<path style="fill:#e29453; stroke:none;" d="M187 347L188 348L187 347M195 347L196 348L195 347M222.333 347.667L222.667 348.333L222.333 347.667M237 347L238 348L237 347z"/>
<path style="fill:#5e5e5f; stroke:none;" d="M251 347L251 350L252 350L251 347z"/>
<path style="fill:#e29453; stroke:none;" d="M296 347L297 348L296 347M314 347L315 348L314 347z"/>
<path style="fill:#5e5e5f; stroke:none;" d="M325.333 347.667L325.667 348.333L325.333 347.667M340 347L341 348L340 347z"/>
<path style="fill:#e29453; stroke:none;" d="M352 347L353 348L352 347M396 347L397 348L396 347z"/>
<path style="fill:#5e5e5f; stroke:none;" d="M404 347L405 348L404 347z"/>
<path style="fill:#e29453; stroke:none;" d="M100 348L101 349L100 348z"/>
<path style="fill:#5e5e5f; stroke:none;" d="M115 348L115 354L116 354L115 348z"/>
<path style="fill:#e29453; stroke:none;" d="M158 348L159 349L158 348z"/>
<path style="fill:#5e5e5f; stroke:none;" d="M168 348L169 349L168 348z"/>
<path style="fill:#e29453; stroke:none;" d="M186 348L187 349L186 348z"/>
<path style="fill:#5e5e5f; stroke:none;" d="M196 348L197 349L196 348M266 348L266 375L267 375L266 348M313 348L314 349L313 348z"/>
<path style="fill:#e29453; stroke:none;" d="M340 348L341 349L340 348z"/>
<path style="fill:#5e5e5f; stroke:none;" d="M353.333 348.667L353.667 349.333L353.333 348.667z"/>
<path style="fill:#e29453; stroke:none;" d="M368 348L369 349L368 348M395 348L396 349L395 348M404 348L405 349L404 348M86 349L87 350L86 349z"/>
<path style="fill:#5e5e5f; stroke:none;" d="M157 349L158 350L157 349z"/>
<path style="fill:#e29453; stroke:none;" d="M168 349L169 350L168 349z"/>
<path style="fill:#5e5e5f; stroke:none;" d="M185 349L186 350L185 349M197 349L197 354L198 354L197 349M223 349L224 350L223 349z"/>
<path style="fill:#e29453; stroke:none;" d="M236 349L237 350L236 349z"/>
<path style="fill:#5e5e5f; stroke:none;" d="M295 349L293 353L295 349M312 349L311 352L312 352L312 349z"/>
<path style="fill:#e29453; stroke:none;" d="M324 349L325 350L324 349z"/>
<path style="fill:#5e5e5f; stroke:none;" d="M339.333 349.667L339.667 350.333L339.333 349.667M368.333 349.667L368.667 350.333L368.333 349.667M405 349L406 350L405 349z"/>
<path style="fill:#e29453; stroke:none;" d="M87 350L87 351L90 351L87 350z"/>
<path style="fill:#5e5e5f; stroke:none;" d="M90 350L90 351L96 351L90 350z"/>
<path style="fill:#e29453; stroke:none;" d="M99 350L100 351L99 350M130.333 350.667L130.667 351.333L130.333 350.667M157 350L158 351L157 350z"/>
<path style="fill:#5e5e5f; stroke:none;" d="M169 350L169 354L170 354L169 350z"/>
<path style="fill:#e29453; stroke:none;" d="M185 350L186 351L185 350M224.667 350.333L225.333 350.667L224.667 350.333z"/>
<path style="fill:#5e5e5f; stroke:none;" d="M226 350L226 351L233 351L226 350M235 350L236 351L235 350z"/>
<path style="fill:#e29453; stroke:none;" d="M251 350L252 351L251 350M294 350L295 351L294 350M312 350L313 351L312 350z"/>
<path style="fill:#5e5e5f; stroke:none;" d="M324 350L324 353L325 353L324 350z"/>
<path style="fill:#e29453; stroke:none;" d="M353 350L354 351L353 350M394 350L395 351L394 350M405 350L406 351L405 350M421 350L421 389L422 389C422 377.828 425.311 360.274 421 350M95 351L95 352L99 352L95 351z"/>
<path style="fill:#5e5e5f; stroke:none;" d="M184 351L184 355L185 355L184 351z"/>
<path style="fill:#e29453; stroke:none;" d="M231 351L231 352L235 352L231 351z"/>
<path style="fill:#5e5e5f; stroke:none;" d="M251 351L252 352L251 351z"/>
<path style="fill:#e29453; stroke:none;" d="M293 351L294 352L293 351M339.333 351.667L339.667 352.333L339.333 351.667M369 351L370 352L369 351M570 351L569 373L570 373C571.419 365.682 573.397 358.068 570 351M745 351C745.598 356.367 748.126 359.706 753 362L745 351z"/>
<path style="fill:#5e5e5f; stroke:none;" d="M156 352L156 356L157 356L156 352z"/>
<path style="fill:#e29453; stroke:none;" d="M251 352L252 353L251 352z"/>
<path style="fill:#5e5e5f; stroke:none;" d="M310 352L311 353L310 352M354 352L354 355L355 355L354 352M369 352L369 357L370 357L369 352z"/>
<path style="fill:#e29453; stroke:none;" d="M393.333 352.667L393.667 353.333L393.333 352.667z"/>
<path style="fill:#5e5e5f; stroke:none;" d="M406 352L406 356L407 356L406 352M251 353L250 355L252 355L251 353z"/>
<path style="fill:#e29453; stroke:none;" d="M292 353L291 355L292 353M323 353L324 354L323 353z"/>
<path style="fill:#5e5e5f; stroke:none;" d="M338 353L338 370L339 370L338 353M392 353L392 389L393 389C393 378.613 396.011 362.56 392 353z"/>
<path style="fill:#e29453; stroke:none;" d="M627 353L627 358L628 358L627 353M110 354L110 355L114 355L110 354z"/>
<path style="fill:#5e5e5f; stroke:none;" d="M114 354L115 355L114 354z"/>
<path style="fill:#e29453; stroke:none;" d="M169 354L169 390L170 390C170 379.613 173.011 363.56 169 354M197 354L197 359L198 359L197 354M246 354L246 355L250 355L246 354z"/>
<path style="fill:#5e5e5f; stroke:none;" d="M292 354L293 355L292 354z"/>
<path style="fill:#e29453; stroke:none;" d="M309 354L310 355L309 354z"/>
<path style="fill:#5e5e5f; stroke:none;" d="M323 354L323 370L324 370L323 354z"/>
<path style="fill:#e29453; stroke:none;" d="M103.667 355.333L104.333 355.667L103.667 355.333z"/>
<path style="fill:#5e5e5f; stroke:none;" d="M105 355L105 356L110 356L105 355z"/>
<path style="fill:#e29453; stroke:none;" d="M184 355L184 390L185 390L184 355M239.667 355.333L240.333 355.667L239.667 355.333z"/>
<path style="fill:#5e5e5f; stroke:none;" d="M241 355L241 356L247 356L241 355M291 355L292 356L291 355M308 355L309 356L308 355z"/>
<path style="fill:#e29453; stroke:none;" d="M354 355L354 360L355 360L354 355M562 355L562 367L563 367L562 355M99 356L100 357L99 356z"/>
<path style="fill:#5e5e5f; stroke:none;" d="M100 356L100 357L104 357L100 356z"/>
<path style="fill:#e29453; stroke:none;" d="M156 356L156 386L157 386L156 356M235 356L236 357L235 356z"/>
<path style="fill:#5e5e5f; stroke:none;" d="M236 356L236 357L240 357L236 356M290 356L289 359L290 356M307 356L308 357L307 356z"/>
<path style="fill:#e29453; stroke:none;" d="M370 356L370 360L371 360L370 356M406 356L407 357L406 356M96 357L97 358L96 357z"/>
<path style="fill:#5e5e5f; stroke:none;" d="M97 357L98 358L97 357z"/>
<path style="fill:#e29453; stroke:none;" d="M232 357L233 358L232 357z"/>
<path style="fill:#5e5e5f; stroke:none;" d="M233.667 357.333L234.333 357.667L233.667 357.333z"/>
<path style="fill:#e29453; stroke:none;" d="M289 357L290 358L289 357M307 357L308 358L307 357z"/>
<path style="fill:#5e5e5f; stroke:none;" d="M406 357L406 389L407 389L406 357z"/>
<path style="fill:#e29453; stroke:none;" d="M508 357L507 373L508 373L508 357z"/>
<path style="fill:#5e5e5f; stroke:none;" d="M94.6667 358.333L95.3333 358.667L94.6667 358.333z"/>
<path style="fill:#e29453; stroke:none;" d="M230 358L231 359L230 358z"/>
<path style="fill:#5e5e5f; stroke:none;" d="M231.667 358.333L232.333 358.667L231.667 358.333M306 358L307 359L306 358z"/>
<path style="fill:#e29453; stroke:none;" d="M92 359L93 360L92 359z"/>
<path style="fill:#5e5e5f; stroke:none;" d="M93 359L94 360L93 359M197 359L197 389L198 389L197 359M229 359L230 360L229 359M288 359L289 360L288 359M305 359L306 360L305 359z"/>
<path style="fill:#e29453; stroke:none;" d="M585 359L586 360L585 359M694 359L695 372L696 372L694 359z"/>
<path style="fill:#5e5e5f; stroke:none;" d="M91 360L92 361L91 360z"/>
<path style="fill:#e29453; stroke:none;" d="M227 360L228 361L227 360z"/>
<path style="fill:#5e5e5f; stroke:none;" d="M228 360L229 361L228 360z"/>
<path style="fill:#e29453; stroke:none;" d="M287 360L288 361L287 360M305 360L306 361L305 360z"/>
<path style="fill:#5e5e5f; stroke:none;" d="M370 360L370 365L371 365L370 360z"/>
<path style="fill:#e29453; stroke:none;" d="M628 360L628 366L629 366L628 360M89 361L90 362L89 361z"/>
<path style="fill:#5e5e5f; stroke:none;" d="M90 361L91 362L90 361z"/>
<path style="fill:#e29453; stroke:none;" d="M226 361L227 362L226 361z"/>
<path style="fill:#5e5e5f; stroke:none;" d="M287 361L288 362L287 361z"/>
<path style="fill:#e29453; stroke:none;" d="M304 361L305 362L304 361z"/>
<path style="fill:#5e5e5f; stroke:none;" d="M89 362L90 363L89 362M225 362L226 363L225 362M286 362L287 363L286 362M303 362L304 363L303 362z"/>
<path style="fill:#e29453; stroke:none;" d="M753.667 362.333L754.333 362.667L753.667 362.333z"/>
<path style="fill:#5e5e5f; stroke:none;" d="M88 363L89 364L88 363M108.667 363.333L109.333 363.667L108.667 363.333z"/>
<path style="fill:#e29453; stroke:none;" d="M110.667 363.333L111.333 363.667L110.667 363.333z"/>
<path style="fill:#fffffe; stroke:none;" d="M115 363C112.039 363.382 108.793 363.705 106.019 364.879C91.4119 371.057 109.909 390 114.319 371C114.934 368.352 114.978 365.702 115 363z"/>
<path style="fill:#5e5e5f; stroke:none;" d="M115 363L115 372L116 372L115 363z"/>
<path style="fill:#e29453; stroke:none;" d="M224 363L225 364L224 363z"/>
<path style="fill:#5e5e5f; stroke:none;" d="M245 363L246 364L245 363z"/>
<path style="fill:#e29453; stroke:none;" d="M246.667 363.333L247.333 363.667L246.667 363.333z"/>
<path style="fill:#fffffe; stroke:none;" d="M251 363C248.355 363.342 245.484 363.615 243.015 364.703C227.186 371.68 248.234 389.559 250.811 371C251.175 368.377 251 365.641 251 363z"/>
<path style="fill:#5e5e5f; stroke:none;" d="M251.333 363.667L251.667 364.333L251.333 363.667z"/>
<path style="fill:#e29453; stroke:none;" d="M285 363L286 364L285 363M585 363L585 366L586 366L585 363M755.667 363.333L756.333 363.667L755.667 363.333M87 364L86 366L87 364z"/>
<path style="fill:#5e5e5f; stroke:none;" d="M105 364L106 365L105 364z"/>
<path style="fill:#e29453; stroke:none;" d="M106 364L107 365L106 364z"/>
<path style="fill:#5e5e5f; stroke:none;" d="M224 364L225 365L224 364M241.667 364.333L242.333 364.667L241.667 364.333M285 364L286 365L285 364z"/>
<path style="fill:#e29453; stroke:none;" d="M302 364L303 365L302 364M475 364L477 376L478 376L475 364M757.667 364.333L758.333 364.667L757.667 364.333z"/>
<path style="fill:#5e5e5f; stroke:none;" d="M87 365L88 366L87 365M103 365L104 366L103 365M223 365L224 366L223 365z"/>
<path style="fill:#e29453; stroke:none;" d="M240 365L241 366L240 365M251 365L252 366L251 365z"/>
<path style="fill:#5e5e5f; stroke:none;" d="M284 365L285 366L284 365M301 365L302 366L301 365z"/>
<path style="fill:#e29453; stroke:none;" d="M370 365L370 369L371 369L370 365M759.667 365.333L760.333 365.667L759.667 365.333z"/>
<path style="fill:#5e5e5f; stroke:none;" d="M86.3333 366.667L86.6667 367.333L86.3333 366.667M102 366L103 367L102 366z"/>
<path style="fill:#e29453; stroke:none;" d="M222 366L223 367L222 366z"/>
<path style="fill:#5e5e5f; stroke:none;" d="M238 366L239 367L238 366z"/>
<path style="fill:#e29453; stroke:none;" d="M239 366L240 367L239 366z"/>
<path style="fill:#5e5e5f; stroke:none;" d="M251.333 366.667L251.667 367.333L251.333 366.667z"/>
<path style="fill:#e29453; stroke:none;" d="M283 366L284 367L283 366z"/>
<path style="fill:#5e5e5f; stroke:none;" d="M300 366L301 367L300 366z"/>
<path style="fill:#e29453; stroke:none;" d="M586 366L586 371L587 371L586 366M627 366L627 372L628 372L627 366M761.667 366.333L762.333 366.667L761.667 366.333M85.3333 367.667L85.6667 368.333L85.3333 367.667z"/>
<path style="fill:#5e5e5f; stroke:none;" d="M101 367L102 368L101 367M222.333 367.667L222.667 368.333L222.333 367.667z"/>
<path style="fill:#e29453; stroke:none;" d="M238 367L239 368L238 367M300 367L301 368L300 367M763.667 367.333L764.333 367.667L763.667 367.333z"/>
<path style="fill:#5e5e5f; stroke:none;" d="M237 368L238 369L237 368z"/>
<path style="fill:#e29453; stroke:none;" d="M251 368L252 369L251 368z"/>
<path style="fill:#5e5e5f; stroke:none;" d="M282 368L283 369L282 368M299 368L300 369L299 368z"/>
<path style="fill:#e29453; stroke:none;" d="M354 368L355 369L354 368z"/>
<path style="fill:#5e5e5f; stroke:none;" d="M369 368L369 372L370 372L369 368z"/>
<path style="fill:#e29453; stroke:none;" d="M561 368L561 371L562 371L561 368M765 368L769 372L765 368z"/>
<path style="fill:#5e5e5f; stroke:none;" d="M85.3333 369.667L85.6667 370.333L85.3333 369.667M100 369L101 370L100 369z"/>
<path style="fill:#e29453; stroke:none;" d="M221 369L222 370L221 369M237 369L238 370L237 369z"/>
<path style="fill:#5e5e5f; stroke:none;" d="M251 369L251 372L252 372L251 369M281 369L282 370L281 369M298 369L297 372L298 372L298 369M354 369L354 372L355 372L354 369z"/>
<path style="fill:#e29453; stroke:none;" d="M100 370L101 371L100 370M114 370L114 373L115 373L114 370z"/>
<path style="fill:#5e5e5f; stroke:none;" d="M221 370L222 384L223 384L221 370M236 370L236 377L237 377L236 370z"/>
<path style="fill:#e29453; stroke:none;" d="M280 370L281 371L280 370M298 370L302 372L302 371L298 370M323 370L324 371L323 370M339.333 370.667L339.667 371.333L339.333 370.667M84 371L84 380L85 380L84 371z"/>
<path style="fill:#5e5e5f; stroke:none;" d="M280 371L281 372L280 371z"/>
<path style="fill:#e29453; stroke:none;" d="M560.333 371.667L560.667 372.333L560.333 371.667M587 371L588 376L589 376L587 371z"/>
<path style="fill:#5e5e5f; stroke:none;" d="M279 372L280 373L279 372M300 372L300 373L306 373L300 372z"/>
<path style="fill:#e29453; stroke:none;" d="M306.667 372.333L307.333 372.667L306.667 372.333z"/>
<path style="fill:#5e5e5f; stroke:none;" d="M324.333 372.667L324.667 373.333L324.333 372.667M339 372L339 375L340 375L339 372z"/>
<path style="fill:#e29453; stroke:none;" d="M369.333 372.667L369.667 373.333L369.333 372.667M626 372L626 376L627 376L626 372M769.333 372.667L769.667 373.333L769.333 372.667z"/>
<path style="fill:#5e5e5f; stroke:none;" d="M114 373L112 378L113 378L114 373z"/>
<path style="fill:#e29453; stroke:none;" d="M130 373L131 374L130 373M250 373L251 374L250 373M278 373L279 374L278 373z"/>
<path style="fill:#5e5e5f; stroke:none;" d="M308.667 373.333L309.333 373.667L308.667 373.333z"/>
<path style="fill:#e29453; stroke:none;" d="M310.667 373.333L311.333 373.667L310.667 373.333z"/>
<path style="fill:#5e5e5f; stroke:none;" d="M368.333 373.667L368.667 374.333L368.333 373.667z"/>
<path style="fill:#e29453; stroke:none;" d="M506.333 373.667L506.667 374.333L506.333 373.667M559 373L552 382C555.693 380.262 559.592 377.443 559 373M568 373L562 384C565.553 381.36 569.287 377.709 568 373M617.333 373.667L617.667 374.333L617.333 373.667M113 374L114 375L113 374z"/>
<path style="fill:#5e5e5f; stroke:none;" d="M130.333 374.667L130.667 375.333L130.333 374.667M250 374L251 375L250 374M278 374L279 375L278 374M312 374L313 375L312 374z"/>
<path style="fill:#e29453; stroke:none;" d="M313 374L314 375L313 374M324 374L325 375L324 374M340.333 374.667L340.667 375.333L340.333 374.667z"/>
<path style="fill:#5e5e5f; stroke:none;" d="M353.333 374.667L353.667 375.333L353.333 374.667z"/>
<path style="fill:#e29453; stroke:none;" d="M770 374L770 378L771 378L770 374M267 375L268 376L267 375M277 375L278 376L277 375z"/>
<path style="fill:#5e5e5f; stroke:none;" d="M314 375L315 376L314 375z"/>
<path style="fill:#e29453; stroke:none;" d="M315 375L316 376L315 375z"/>
<path style="fill:#5e5e5f; stroke:none;" d="M325.333 375.667L325.667 376.333L325.333 375.667z"/>
<path style="fill:#e29453; stroke:none;" d="M368 375L369 376L368 375M505 375C499.467 382.784 493.997 384.136 485 383L485 384C491.199 385.476 507.013 385.025 505 375M616.333 375.667L616.667 376.333L616.333 375.667z"/>
<path style="fill:#5e5e5f; stroke:none;" d="M100.333 376.667L100.667 377.333L100.333 376.667z"/>
<path style="fill:#e29453; stroke:none;" d="M112 376L113 377L112 376M131 376L132 377L131 376z"/>
<path style="fill:#5e5e5f; stroke:none;" d="M249 376L246 379L246 380L249 376M267 376L269 379L267 376M277 376L278 377L277 376M316 376L318 378L316 376z"/>
<path style="fill:#e29453; stroke:none;" d="M317 376L318 377L317 376z"/>
<path style="fill:#5e5e5f; stroke:none;" d="M340 376L341 377L340 376z"/>
<path style="fill:#e29453; stroke:none;" d="M352 376L353 377L352 376z"/>
<path style="fill:#5e5e5f; stroke:none;" d="M367 376L365 382L366 382L367 376z"/>
<path style="fill:#e29453; stroke:none;" d="M478 376L480 379L478 376M589.333 376.667L589.667 377.333L589.333 376.667M625.333 376.667L625.667 377.333L625.333 376.667z"/>
<path style="fill:#5e5e5f; stroke:none;" d="M131 377L132 378L131 377z"/>
<path style="fill:#e29453; stroke:none;" d="M237 377L240 380L237 377M248 377L249 378L248 377M268 377L269 378L268 377M325 377L326 378L325 377z"/>
<path style="fill:#5e5e5f; stroke:none;" d="M341 377L343 380L341 377M352 377L353 378L352 377z"/>
<path style="fill:#e29453; stroke:none;" d="M615 377L611 382L615 377z"/>
<path style="fill:#5e5e5f; stroke:none;" d="M101 378L102 379L101 378M111 378L112 379L111 378z"/>
<path style="fill:#e29453; stroke:none;" d="M132 378L134 380L132 378z"/>
<path style="fill:#5e5e5f; stroke:none;" d="M237 378L238 379L237 378z"/>
<path style="fill:#e29453; stroke:none;" d="M247 378L248 379L247 378M318 378L318 388L319 388L318 378z"/>
<path style="fill:#5e5e5f; stroke:none;" d="M326 378L327 379L326 378z"/>
<path style="fill:#e29453; stroke:none;" d="M342 378L343 379L342 378z"/>
<path style="fill:#5e5e5f; stroke:none;" d="M351 378L352 379L351 378z"/>
<path style="fill:#e29453; stroke:none;" d="M367 378L368 379L367 378M590 378L594 382L590 378M624.333 378.667L624.667 379.333L624.333 378.667z"/>
<path style="fill:#5e5e5f; stroke:none;" d="M102 379L103 380L102 379z"/>
<path style="fill:#e29453; stroke:none;" d="M109 379L110 380L109 379z"/>
<path style="fill:#5e5e5f; stroke:none;" d="M110 379L111 380L110 379M132 379L133 380L132 379M238 379L239 380L238 379M269 379L270 384L271 384L269 379z"/>
<path style="fill:#e29453; stroke:none;" d="M326 379L327 380L326 379M343 379L344 380L343 379M349 379L350 380L349 379z"/>
<path style="fill:#5e5e5f; stroke:none;" d="M350 379L351 380L350 379z"/>
<path style="fill:#e29453; stroke:none;" d="M480 379L481 380L480 379z"/>
<path style="fill:#5e5e5f; stroke:none;" d="M85.3333 380.667L85.6667 381.333L85.3333 380.667M103.667 380.333L104.333 380.667L103.667 380.333z"/>
<path style="fill:#e29453; stroke:none;" d="M105 380L105 381L108 381L105 380z"/>
<path style="fill:#5e5e5f; stroke:none;" d="M108.667 380.333L109.333 380.667L108.667 380.333M133 380L134 381L133 380M239.667 380.333L240.333 380.667L239.667 380.333z"/>
<path style="fill:#e29453; stroke:none;" d="M241 380L241 381L244 381L241 380z"/>
<path style="fill:#5e5e5f; stroke:none;" d="M244.667 380.333L245.333 380.667L244.667 380.333z"/>
<path style="fill:#e29453; stroke:none;" d="M270 380L271 381L270 380z"/>
<path style="fill:#5e5e5f; stroke:none;" d="M327 380L328 381L327 380M344 380L344 381L350 381L344 380z"/>
<path style="fill:#e29453; stroke:none;" d="M366 380L367 381L366 380M481 380L482 381L481 380M623 380L622 383L623 380M134 381L135 382L134 381M221 381L222 382L221 381M327 381L328 382L327 381M482 381L485 383L482 381M85 382L86 383L85 382z"/>
<path style="fill:#5e5e5f; stroke:none;" d="M134 382L131 386L134 382M328 382L329 383L328 382M364 382L363 384L364 382z"/>
<path style="fill:#e29453; stroke:none;" d="M534 383L534 384C540.104 385.453 546.179 385.456 552 383L534 383M594 382L594 383L610 385L594 382M610 382L611 383L610 382z"/>
<path style="fill:#5e5e5f; stroke:none;" d="M86 383L87 384L86 383z"/>
<path style="fill:#e29453; stroke:none;" d="M134 383L135 384L134 383z"/>
<path style="fill:#5e5e5f; stroke:none;" d="M329 383L330 384L329 383z"/>
<path style="fill:#e29453; stroke:none;" d="M364 383L365 384L364 383M621 383L622 384L621 383M86 384L87 385L86 384z"/>
<path style="fill:#5e5e5f; stroke:none;" d="M116.667 384.333L117.333 384.667L116.667 384.333z"/>
<path style="fill:#e29453; stroke:none;" d="M133 384L134 385L133 384z"/>
<path style="fill:#5e5e5f; stroke:none;" d="M223 384L224 385L223 384z"/>
<path style="fill:#e29453; stroke:none;" d="M253 384L254 385L253 384z"/>
<path style="fill:#5e5e5f; stroke:none;" d="M269 384L270 385L269 384M295 384L295 385L300 385L295 384M330 384L331 385L330 384z"/>
<path style="fill:#e29453; stroke:none;" d="M363 384L364 385L363 384M377.333 384.667L377.667 385.333L377.333 384.667M558 387L562 384L558 387M620 384L621 385L620 384z"/>
<path style="fill:#5e5e5f; stroke:none;" d="M87 385L88 386L87 385M115 385L116 386L115 385M118 385L119 386L118 385z"/>
<path style="fill:#e29453; stroke:none;" d="M132 385L133 386L132 385M223 385L224 386L223 385M252 385L253 386L252 385M254 385L255 386L254 385M268 385L269 386L268 385M276.333 385.667L276.667 386.333L276.333 385.667z"/>
<path style="fill:#5e5e5f; stroke:none;" d="M288 385L288 386L291 386L288 385z"/>
<path style="fill:#e29453; stroke:none;" d="M291 385L292 386L291 385M302 385L302 386L305 386L302 385z"/>
<path style="fill:#5e5e5f; stroke:none;" d="M305 385L306 386L305 385z"/>
<path style="fill:#e29453; stroke:none;" d="M330 385L331 386L330 385z"/>
<path style="fill:#5e5e5f; stroke:none;" d="M361 385L359 388L361 385z"/>
<path style="fill:#e29453; stroke:none;" d="M362 385L363 386L362 385M619 385L620 386L619 385z"/>
<path style="fill:#5e5e5f; stroke:none;" d="M88 386L90 388L88 386M114 386L115 387L114 386M119 386L120 387L119 386M130 386L131 387L130 386M156 386L157 387L156 386M224 386L225 387L224 386z"/>
<path style="fill:#e29453; stroke:none;" d="M251 386L252 387L251 386z"/>
<path style="fill:#5e5e5f; stroke:none;" d="M255 386L256 387L255 386M266 386L265 388L266 386z"/>
<path style="fill:#e29453; stroke:none;" d="M267 386L268 387L267 386z"/>
<path style="fill:#5e5e5f; stroke:none;" d="M285 386L286 387L285 386z"/>
<path style="fill:#e29453; stroke:none;" d="M286.667 386.333L287.333 386.667L286.667 386.333M308 386L309 387L308 386z"/>
<path style="fill:#5e5e5f; stroke:none;" d="M309 386L310 387L309 386z"/>
<path style="fill:#e29453; stroke:none;" d="M361 386L362 387L361 386M618 386L619 387L618 386M88 387L89 388L88 387z"/>
<path style="fill:#5e5e5f; stroke:none;" d="M113 387L114 388L113 387z"/>
<path style="fill:#e29453; stroke:none;" d="M119 387L120 388L119 387z"/>
<path style="fill:#5e5e5f; stroke:none;" d="M129 387L130 388L129 387z"/>
<path style="fill:#e29453; stroke:none;" d="M156 387L156 390L157 390L156 387z"/>
<path style="fill:#5e5e5f; stroke:none;" d="M225 387L226 388L225 387M249 387L250 388L249 387z"/>
<path style="fill:#e29453; stroke:none;" d="M250 387L251 388L250 387z"/>
<path style="fill:#5e5e5f; stroke:none;" d="M256 387L257 388L256 387z"/>
<path style="fill:#e29453; stroke:none;" d="M266 387L267 388L266 387M283 387L284 388L283 387M311 387L312 388L311 387z"/>
<path style="fill:#5e5e5f; stroke:none;" d="M312 387L313 388L312 387M333 387L334 388L333 387z"/>
<path style="fill:#e29453; stroke:none;" d="M360 387L361 388L360 387M528 387L529 388L528 387M556.667 387.333L557.333 387.667L556.667 387.333M613 389L613 390L618 388L613 389z"/>
<path style="fill:#5e5e5f; stroke:none;" d="M90 388L91 389L90 388z"/>
<path style="fill:#e29453; stroke:none;" d="M112 388L113 389L112 388z"/>
<path style="fill:#5e5e5f; stroke:none;" d="M120 388L121 389L120 388z"/>
<path style="fill:#e29453; stroke:none;" d="M128 388L129 389L128 388z"/>
<path style="fill:#5e5e5f; stroke:none;" d="M226 388L227 389L226 388M248 388L249 389L248 388M264 388L265 389L264 388M277 388L278 389L277 388M280 388L281 389L280 388z"/>
<path style="fill:#e29453; stroke:none;" d="M281 388L282 389L281 388M313 388L314 389L313 388z"/>
<path style="fill:#5e5e5f; stroke:none;" d="M314 388L315 389L314 388M317 388L318 389L317 388M334 388L335 389L334 388M358 388L359 389L358 388z"/>
<path style="fill:#e29453; stroke:none;" d="M554.667 388.333L555.333 388.667L554.667 388.333M91 389L92 390L91 389z"/>
<path style="fill:#5e5e5f; stroke:none;" d="M92 389L93 390L92 389M110 389L111 390L110 389z"/>
<path style="fill:#e29453; stroke:none;" d="M121 389L122 390L121 389M127 389L128 390L127 389z"/>
<path style="fill:#5e5e5f; stroke:none;" d="M170 389L183 391L183 390L170 389z"/>
<path style="fill:#e29453; stroke:none;" d="M197 389L198 390L197 389z"/>
<path style="fill:#5e5e5f; stroke:none;" d="M211 389L212 390L211 389M228 389L229 390L228 389M246 389L247 390L246 389M263 389L264 390L263 389z"/>
<path style="fill:#e29453; stroke:none;" d="M278.667 389.333L279.333 389.667L278.667 389.333M315.667 389.333L316.333 389.667L315.667 389.333M335 389L336 390L335 389z"/>
<path style="fill:#5e5e5f; stroke:none;" d="M336 389L337 390L336 389M356 389L357 390L356 389M378 389L378 390L392 391L392 390L378 389z"/>
<path style="fill:#e29453; stroke:none;" d="M392 389L393 390L392 389M406 389L407 390L406 389M552.667 389.333L553.333 389.667L552.667 389.333M93 390L94 391L93 390z"/>
<path style="fill:#5e5e5f; stroke:none;" d="M94 390L95 391L94 390M107 390L108 391L107 390z"/>
<path style="fill:#e29453; stroke:none;" d="M108 390L109 391L108 390M122 390L123 391L122 390M126 390L127 391L126 390M142 390L143 391L142 390M183 390L184 391L183 390z"/>
<path style="fill:#5e5e5f; stroke:none;" d="M198 390L198 391L211 391L198 390M230 390L231 391L230 390M243.667 390.333L244.333 390.667L243.667 390.333M259 390L260 391L259 390M262 390L263 391L262 390M338 390L339 391L338 390M354 390L355 391L354 390z"/>
<path style="fill:#e29453; stroke:none;" d="M355 390L356 391L355 390M378 390L379 391L378 390M420 390L421 391L420 390M529 390L529 391L532 391L529 390M549 390L549 391L552 391L549 390M610 390L610 391L613 391L610 390M96.6667 391.333L97.3333 391.667L96.6667 391.333z"/>
<path style="fill:#5e5e5f; stroke:none;" d="M98 391L98 392L103 392L98 391z"/>
<path style="fill:#e29453; stroke:none;" d="M103.667 391.333L104.333 391.667L103.667 391.333M232.667 391.333L233.333 391.667L232.667 391.333z"/>
<path style="fill:#5e5e5f; stroke:none;" d="M234 391L234 392L239 392L234 391z"/>
<path style="fill:#e29453; stroke:none;" d="M239 391L239 392L242 392L239 391M340 391L341 392L340 391z"/>
<path style="fill:#5e5e5f; stroke:none;" d="M341 391L341 392L344 392L341 391M349 391L349 392L352 392L349 391z"/>
<path style="fill:#e29453; stroke:none;" d="M533 391L533 392L538 392L533 391M544 391L544 392L548 392L544 391M596 391L596 392L601 392L596 391M604 391L604 392L610 392L604 391M655 391L655 392L658 392L655 391M289.667 393.333L290.333 393.667L289.667 393.333z"/>
<path style="fill:#5e5e5f; stroke:none;" d="M291 393L291 394L296 394L291 393z"/>
<path style="fill:#070809; stroke:none;" d="M278 401C283.855 400.26 298.586 396.631 301.382 404.059C303.758 410.37 297.935 418.76 297 425C303.706 421.845 315.754 402.965 308.397 395.742C301.997 389.461 281.783 393.769 278 401z"/>
<path style="fill:#5e5e5f; stroke:none;" d="M300 393L300 394L305 394L300 393z"/>
<path style="fill:#e29453; stroke:none;" d="M305 393L306 394L305 393M285 394L286 395L285 394z"/>
<path style="fill:#5e5e5f; stroke:none;" d="M286.667 394.333L287.333 394.667L286.667 394.333M307 394L308 395L307 394z"/>
<path style="fill:#e29453; stroke:none;" d="M308 394L309 395L308 394M282 395L283 396L282 395z"/>
<path style="fill:#5e5e5f; stroke:none;" d="M283.667 395.333L284.333 395.667L283.667 395.333M309 395L310 396L309 395z"/>
<path style="fill:#e29453; stroke:none;" d="M132 396L132 397L135 397L132 396M280 396L281 397L280 396z"/>
<path style="fill:#5e5e5f; stroke:none;" d="M281 396L282 397L281 396z"/>
<path style="fill:#e29453; stroke:none;" d="M310 396L311 397L310 396z"/>
<path style="fill:#070809; stroke:none;" d="M132 397C136.497 405.882 148.592 412.207 157 416.999C186.371 433.739 222.675 436.653 255 428.37C265.39 425.708 291.91 419.364 294 407C285.441 407.439 277.253 411.936 269 414.116C252.624 418.441 234.997 421.705 218 420.961C199.29 420.141 179.624 416.35 162 409.946C152.129 406.359 142.167 398.835 132 397z"/>
<path style="fill:#5e5e5f; stroke:none;" d="M135 397L136 398L135 397z"/>
<path style="fill:#e29453; stroke:none;" d="M136 397L137 398L136 397M278 397L277 399L278 397z"/>
<path style="fill:#5e5e5f; stroke:none;" d="M279 397L280 398L279 397M310 397L310 401L311 401L310 397M137 398L138 399L137 398z"/>
<path style="fill:#e29453; stroke:none;" d="M138 398L139 399L138 398z"/>
<path style="fill:#5e5e5f; stroke:none;" d="M278 398L279 399L278 398M132 399L133 400L132 399M139 399L142 401L142 400L139 399z"/>
<path style="fill:#e29453; stroke:none;" d="M140 399L141 400L140 399z"/>
<path style="fill:#5e5e5f; stroke:none;" d="M277.333 399.667L277.667 400.333L277.333 399.667M292.667 399.333L293.333 399.667L292.667 399.333M133 400L134 401L133 400M281 400L281 401L288 401L281 400z"/>
<path style="fill:#e29453; stroke:none;" d="M288 400L288 401L297 401L288 400z"/>
<path style="fill:#5e5e5f; stroke:none;" d="M297 400L297 401L301 402L301 401L297 400M134 401L134 402L139 405L134 401M142.667 401.333L143.333 401.667L142.667 401.333z"/>
<path style="fill:#e29453; stroke:none;" d="M277 401L277 402L282 402L277 401M299 401L300 402L299 401M310 401L310 404L311 404L310 401M135 402L136 403L135 402z"/>
<path style="fill:#5e5e5f; stroke:none;" d="M144.667 402.333L145.333 402.667L144.667 402.333M301 402L302 403L301 402z"/>
<path style="fill:#e29453; stroke:none;" d="M136 403L137 404L136 403z"/>
<path style="fill:#5e5e5f; stroke:none;" d="M146 403L146 404L152 406L152 405L146 403z"/>
<path style="fill:#e29453; stroke:none;" d="M148 403L149 404L148 403M301 403L302 404L301 403M137 404L138 405L137 404M150 404L151 405L150 404z"/>
<path style="fill:#5e5e5f; stroke:none;" d="M139 405L140 406L139 405z"/>
<path style="fill:#e29453; stroke:none;" d="M152 405L153 406L152 405z"/>
<path style="fill:#5e5e5f; stroke:none;" d="M309.333 405.667L309.667 406.333L309.333 405.667z"/>
<path style="fill:#e29453; stroke:none;" d="M140 406L142 408L140 406z"/>
<path style="fill:#5e5e5f; stroke:none;" d="M141 406L142 407L141 406M153 406L154 407L153 406z"/>
<path style="fill:#e29453; stroke:none;" d="M154 406L155 407L154 406M289 406L290 407L289 406z"/>
<path style="fill:#5e5e5f; stroke:none;" d="M290 406L290 407L293 407L290 406z"/>
<path style="fill:#e29453; stroke:none;" d="M293 406L294 407L293 406M301 406L302 407L301 406z"/>
<path style="fill:#5e5e5f; stroke:none;" d="M142 407L143 408L142 407M155.667 407.333L156.333 407.667L155.667 407.333z"/>
<path style="fill:#e29453; stroke:none;" d="M157 407L158 408L157 407M287 407L288 408L287 407z"/>
<path style="fill:#5e5e5f; stroke:none;" d="M288 407L289 408L288 407z"/>
<path style="fill:#e29453; stroke:none;" d="M294 407L295 408L294 407z"/>
<path style="fill:#5e5e5f; stroke:none;" d="M301 407L301 410L302 410L301 407z"/>
<path style="fill:#e29453; stroke:none;" d="M309 407L310 408L309 407z"/>
<path style="fill:#5e5e5f; stroke:none;" d="M143 408L144 409L143 408M158.667 408.333L159.333 408.667L158.667 408.333z"/>
<path style="fill:#e29453; stroke:none;" d="M284 408L285 409L284 408z"/>
<path style="fill:#5e5e5f; stroke:none;" d="M285.667 408.333L286.333 408.667L285.667 408.333M294.333 408.667L294.667 409.333L294.333 408.667z"/>
<path style="fill:#e29453; stroke:none;" d="M144 409L146 411L144 409z"/>
<path style="fill:#5e5e5f; stroke:none;" d="M145 409L146 410L145 409M160.667 409.333L161.333 409.667L160.667 409.333z"/>
<path style="fill:#e29453; stroke:none;" d="M162 409L163 410L162 409M281 409L282 410L281 409z"/>
<path style="fill:#5e5e5f; stroke:none;" d="M282.667 409.333L283.333 409.667L282.667 409.333M308 409L309 410L308 409M146 410L147 411L146 410M163.667 410.333L164.333 410.667L163.667 410.333z"/>
<path style="fill:#e29453; stroke:none;" d="M165 410L166 411L165 410M279 410L280 411L279 410z"/>
<path style="fill:#5e5e5f; stroke:none;" d="M280 410L281 411L280 410z"/>
<path style="fill:#e29453; stroke:none;" d="M294 410L295 411L294 410M308 410L309 411L308 410M147 411L148 412L147 411z"/>
<path style="fill:#5e5e5f; stroke:none;" d="M166.667 411.333L167.333 411.667L166.667 411.333z"/>
<path style="fill:#e29453; stroke:none;" d="M168 411L169 412L168 411M276 411L277 412L276 411z"/>
<path style="fill:#5e5e5f; stroke:none;" d="M277 411L278 412L277 411M292 411L291 413L292 411z"/>
<path style="fill:#e29453; stroke:none;" d="M293 411L294 412L293 411M300 411L301 412L300 411z"/>
<path style="fill:#5e5e5f; stroke:none;" d="M149 412L150 413L149 412M170 412L171 413L170 412z"/>
<path style="fill:#e29453; stroke:none;" d="M171 412L172 413L171 412M273 412L274 413L273 412z"/>
<path style="fill:#5e5e5f; stroke:none;" d="M274 412L275 413L274 412z"/>
<path style="fill:#e29453; stroke:none;" d="M292 412L293 413L292 412z"/>
<path style="fill:#5e5e5f; stroke:none;" d="M300.333 412.667L300.667 413.333L300.333 412.667M307 412L308 413L307 412z"/>
<path style="fill:#e29453; stroke:none;" d="M150 413L151 414L150 413z"/>
<path style="fill:#5e5e5f; stroke:none;" d="M173.667 413.333L174.333 413.667L173.667 413.333z"/>
<path style="fill:#e29453; stroke:none;" d="M175 413L176 414L175 413M269 413L270 414L269 413z"/>
<path style="fill:#5e5e5f; stroke:none;" d="M270.667 413.333L271.333 413.667L270.667 413.333M289 413L290 414L289 413z"/>
<path style="fill:#e29453; stroke:none;" d="M290 413L291 414L290 413M307 413L308 414L307 413z"/>
<path style="fill:#5e5e5f; stroke:none;" d="M152 414L153 415L152 414M177 414L178 415L177 414z"/>
<path style="fill:#e29453; stroke:none;" d="M178 414L179 415L178 414M266 414L267 415L266 414z"/>
<path style="fill:#5e5e5f; stroke:none;" d="M267 414L268 415L267 414M288 414L289 415L288 414z"/>
<path style="fill:#e29453; stroke:none;" d="M299 414L300 415L299 414z"/>
<path style="fill:#5e5e5f; stroke:none;" d="M306 414L307 415L306 414z"/>
<path style="fill:#e29453; stroke:none;" d="M153 415L154 416L153 415z"/>
<path style="fill:#5e5e5f; stroke:none;" d="M154 415L155 416L154 415M181 415L182 416L181 415z"/>
<path style="fill:#e29453; stroke:none;" d="M182 415L183 416L182 415M262 415L263 416L262 415z"/>
<path style="fill:#5e5e5f; stroke:none;" d="M263 415L264 416L263 415M286 415L287 416L286 415z"/>
<path style="fill:#e29453; stroke:none;" d="M287 415L288 416L287 415z"/>
<path style="fill:#5e5e5f; stroke:none;" d="M299.333 415.667L299.667 416.333L299.333 415.667z"/>
<path style="fill:#e29453; stroke:none;" d="M306 415L307 416L306 415M155 416L156 417L155 416z"/>
<path style="fill:#5e5e5f; stroke:none;" d="M156 416L157 417L156 416M185.667 416.333L186.333 416.667L185.667 416.333z"/>
<path style="fill:#e29453; stroke:none;" d="M187 416L188 417L187 416M257 416L258 417L257 416z"/>
<path style="fill:#5e5e5f; stroke:none;" d="M258.667 416.333L259.333 416.667L258.667 416.333M285 416L286 417L285 416M305 416L306 417L305 416M157 417L158 418L157 417M190.667 417.333L191.333 417.667L190.667 417.333z"/>
<path style="fill:#e29453; stroke:none;" d="M192.667 417.333L193.333 417.667L192.667 417.333M252 417L253 418L252 417z"/>
<path style="fill:#5e5e5f; stroke:none;" d="M253.667 417.333L254.333 417.667L253.667 417.333M283 417L284 418L283 417M298.333 417.667L298.667 418.333L298.333 417.667z"/>
<path style="fill:#e29453; stroke:none;" d="M305 417L306 418L305 417z"/>
<path style="fill:#5e5e5f; stroke:none;" d="M159 418L160 419L159 418M196.667 418.333L197.333 418.667L196.667 418.333z"/>
<path style="fill:#e29453; stroke:none;" d="M198.667 418.333L199.333 418.667L198.667 418.333M245 418L245 419L248 419L245 418z"/>
<path style="fill:#5e5e5f; stroke:none;" d="M248.667 418.333L249.333 418.667L248.667 418.333M281 418L282 419L281 418z"/>
<path style="fill:#e29453; stroke:none;" d="M282 418L283 419L282 418z"/>
<path style="fill:#5e5e5f; stroke:none;" d="M304 418L305 419L304 418M161 419L162 420L161 419M202 419L202 420L206 420L202 419z"/>
<path style="fill:#e29453; stroke:none;" d="M206 419L206 420L210 420L206 419M237.667 419.333L238.333 419.667L237.667 419.333z"/>
<path style="fill:#5e5e5f; stroke:none;" d="M239 419L239 420L243 420L239 419M279 419L280 420L279 419z"/>
<path style="fill:#e29453; stroke:none;" d="M280 419L281 420L280 419M297 419L298 420L297 419z"/>
<path style="fill:#5e5e5f; stroke:none;" d="M163 420L164 421L163 420M213 420L213 421L230 421L213 420M277 420L278 421L277 420z"/>
<path style="fill:#e29453; stroke:none;" d="M278 420L279 421L278 420z"/>
<path style="fill:#5e5e5f; stroke:none;" d="M297.333 420.667L297.667 421.333L297.333 420.667z"/>
<path style="fill:#e29453; stroke:none;" d="M303 420L304 421L303 420z"/>
<path style="fill:#5e5e5f; stroke:none;" d="M165.667 421.333L166.333 421.667L165.667 421.333M275 421L276 422L275 421z"/>
<path style="fill:#e29453; stroke:none;" d="M276 421L277 422L276 421z"/>
<path style="fill:#5e5e5f; stroke:none;" d="M302 421L303 422L302 421z"/>
<path style="fill:#e29453; stroke:none;" d="M167 422L168 423L167 422z"/>
<path style="fill:#5e5e5f; stroke:none;" d="M168 422L169 423L168 422M273 422L274 423L273 422z"/>
<path style="fill:#e29453; stroke:none;" d="M274 422L275 423L274 422M296 422L297 423L296 422z"/>
<path style="fill:#5e5e5f; stroke:none;" d="M301 422L302 423L301 422z"/>
<path style="fill:#e29453; stroke:none;" d="M169 423L170 424L169 423z"/>
<path style="fill:#5e5e5f; stroke:none;" d="M170 423L171 424L170 423M270.667 423.333L271.333 423.667L270.667 423.333M296 423L299 426L299 425L296 423M300 423L299 425L300 423z"/>
<path style="fill:#e29453; stroke:none;" d="M171 424L172 425L171 424z"/>
<path style="fill:#5e5e5f; stroke:none;" d="M172.667 424.333L173.333 424.667L172.667 424.333M267.667 424.333L268.333 424.667L267.667 424.333z"/>
<path style="fill:#e29453; stroke:none;" d="M269 424L270 425L269 424M295 424L296 425L295 424M300 424L301 425L300 424M174 425L175 426L174 425z"/>
<path style="fill:#5e5e5f; stroke:none;" d="M175.667 425.333L176.333 425.667L175.667 425.333M264.667 425.333L265.333 425.667L264.667 425.333z"/>
<path style="fill:#e29453; stroke:none;" d="M266 425L267 426L266 425M177 426L178 427L177 426z"/>
<path style="fill:#5e5e5f; stroke:none;" d="M178.667 426.333L179.333 426.667L178.667 426.333M261 426L261 427L264 427L261 426z"/>
<path style="fill:#e29453; stroke:none;" d="M297 426L298 427L297 426M180 427L181 428L180 427z"/>
<path style="fill:#5e5e5f; stroke:none;" d="M181.667 427.333L182.333 427.667L181.667 427.333M258.667 427.333L259.333 427.667L258.667 427.333z"/>
<path style="fill:#e29453; stroke:none;" d="M260.667 427.333L261.333 427.667L260.667 427.333M183 428L184 429L183 428z"/>
<path style="fill:#5e5e5f; stroke:none;" d="M184 428L184 429L187 429L184 428M254 428L254 429L257 429L254 428z"/>
<path style="fill:#e29453; stroke:none;" d="M257.667 428.333L258.333 428.667L257.667 428.333M186.667 429.333L187.333 429.667L186.667 429.333z"/>
<path style="fill:#5e5e5f; stroke:none;" d="M188 429L188 430L191 430L188 429M250 429L250 430L253 430L250 429z"/>
<path style="fill:#e29453; stroke:none;" d="M253.667 429.333L254.333 429.667L253.667 429.333M190 430L190 431L193 431L190 430z"/>
<path style="fill:#5e5e5f; stroke:none;" d="M193 430L193 431L196 431L193 430M245 430L245 431L249 431L245 430z"/>
<path style="fill:#e29453; stroke:none;" d="M249.667 430.333L250.333 430.667L249.667 430.333M195 431L195 432L198 432L195 431z"/>
<path style="fill:#5e5e5f; stroke:none;" d="M198 431L198 432L201 432L198 431M240 431L240 432L243 432L240 431z"/>
<path style="fill:#e29453; stroke:none;" d="M243 431L243 432L246 432L243 431M201 432L201 433L205 433L201 432z"/>
<path style="fill:#5e5e5f; stroke:none;" d="M205 432L205 433L211 433L205 432M232 432L232 433L236 433L232 432z"/>
<path style="fill:#e29453; stroke:none;" d="M236 432L236 433L240 433L236 432M210 433L210 434L232 434L210 433z"/>
</svg>
