<?xml version="1.0" standalone="no"?>
<!DOCTYPE svg PUBLIC "-//W3C//DTD SVG 20010904//EN"
 "http://www.w3.org/TR/2001/REC-SVG-20010904/DTD/svg10.dtd">
<svg version="1.0" xmlns="http://www.w3.org/2000/svg"
 width="866.000000pt" height="650.000000pt" viewBox="0 0 866.000000 650.000000"
 preserveAspectRatio="xMidYMid meet">

<g transform="translate(0.000000,650.000000) scale(0.100000,-0.100000)"
fill="#000000" stroke="none">
<path d="M992 3168 c-17 -6 -48 -25 -68 -42 -35 -31 -69 -104 -55 -119 5 -5
33 -11 63 -14 54 -5 55 -5 75 30 24 39 64 54 106 38 28 -11 41 -42 35 -82 -3
-21 -11 -24 -83 -35 -150 -21 -207 -71 -213 -185 -7 -117 41 -169 156 -169 62
0 107 15 145 48 16 14 20 13 50 -16 18 -18 37 -32 41 -32 17 0 96 71 96 86 0
8 -8 27 -17 41 -15 22 -19 58 -23 194 -6 191 -11 206 -90 247 -34 17 -60 22
-115 21 -38 -1 -85 -6 -103 -11z m158 -344 c0 -57 -23 -108 -56 -123 -35 -15
-44 -14 -71 11 -60 57 2 156 100 158 26 0 27 -2 27 -46z"/>
<path d="M1634 3166 c-17 -8 -40 -27 -52 -42 l-21 -29 -1 25 c0 15 -5 31 -12
38 -13 13 -96 16 -116 4 -9 -7 -12 -71 -10 -288 l3 -279 65 0 65 0 5 195 c4
129 10 203 18 217 22 39 91 42 108 5 5 -9 11 -107 14 -217 l5 -200 65 0 65 0
5 195 c3 132 9 202 18 217 27 49 111 38 114 -14 0 -16 0 -107 -2 -203 -3 -205
-4 -203 87 -198 l58 3 3 238 c3 259 0 276 -55 315 -65 46 -150 36 -203 -25
-29 -33 -33 -35 -42 -19 -36 64 -117 91 -184 62z"/>
<path d="M2370 3171 c-77 -24 -140 -87 -140 -142 0 -22 6 -28 31 -33 69 -13
96 -8 108 23 13 29 47 51 80 51 35 0 63 -33 65 -75 l1 -40 -70 -7 c-93 -11
-130 -24 -172 -61 -64 -57 -81 -143 -43 -222 27 -55 64 -75 139 -75 68 0 116
16 145 49 l19 21 31 -36 c37 -43 51 -41 110 11 l40 35 -22 39 c-19 34 -22 54
-22 158 0 203 -18 254 -105 294 -42 19 -146 24 -195 10z m150 -328 c0 -41 -18
-98 -38 -122 -44 -52 -114 -26 -114 42 0 67 43 103 125 106 23 1 27 -3 27 -26z"/>
<path d="M3397 3167 c-57 -18 -102 -60 -134 -124 -25 -53 -28 -68 -28 -163 0
-95 3 -111 28 -162 56 -115 152 -160 272 -127 57 16 129 93 149 160 21 70 20
188 -1 258 -24 75 -90 143 -155 159 -56 14 -81 14 -131 -1z m117 -123 c25 -24
31 -60 31 -174 0 -85 -4 -111 -18 -133 -25 -39 -63 -52 -93 -32 -33 21 -46 83
-42 200 4 122 19 155 73 155 18 0 41 -7 49 -16z"/>
<path d="M4005 3166 c-17 -7 -43 -28 -58 -45 l-27 -33 0 35 c0 23 -6 37 -16
41 -23 9 -97 7 -112 -2 -9 -7 -12 -71 -10 -288 l3 -279 67 -3 c63 -3 68 -1 73
20 2 13 6 105 7 204 3 163 5 184 22 203 26 29 71 28 91 -3 19 -29 24 -81 25
-274 l0 -153 68 3 67 3 0 240 c0 232 -1 241 -23 276 -14 24 -37 43 -62 53 -48
19 -75 20 -115 2z"/>
<path d="M2797 3164 c-4 -4 -7 -31 -7 -61 l0 -53 95 0 c52 0 95 -3 95 -6 0 -3
-37 -58 -83 -122 -125 -177 -127 -181 -127 -251 0 -69 0 -69 80 -41 34 12 81
19 125 19 44 0 91 -7 125 -19 80 -28 80 -28 80 41 l0 60 -46 20 c-25 11 -70
23 -100 26 -30 3 -54 9 -54 12 0 3 43 67 96 141 92 131 95 136 92 185 l-3 50
-181 3 c-99 1 -183 -1 -187 -4z"/>
<path d="M2870 2554 c-58 -16 -100 -38 -100 -54 0 -6 47 -9 115 -7 94 2 117
-1 125 -13 13 -20 3 -80 -26 -159 -28 -74 -29 -81 -10 -81 52 0 148 217 129
291 -10 38 -132 50 -233 23z"/>
<path d="M1320 2520 c0 -28 184 -160 303 -219 179 -87 315 -120 533 -128 185
-7 305 9 464 59 107 34 248 103 300 147 32 27 34 31 19 46 -15 16 -23 14 -110
-18 -447 -167 -951 -140 -1382 74 -99 49 -127 58 -127 39z"/>
</g>
</svg>
