<?xml version="1.0" standalone="no"?>
<!DOCTYPE svg PUBLIC "-//W3C//DTD SVG 20010904//EN"
 "http://www.w3.org/TR/2001/REC-SVG-20010904/DTD/svg10.dtd">
<svg version="1.0" xmlns="http://www.w3.org/2000/svg"
 width="2048.000000pt" height="2048.000000pt" viewBox="0 0 2048.000000 2048.000000"
 preserveAspectRatio="xMidYMid meet">

<g transform="translate(0.000000,2048.000000) scale(0.100000,-0.100000)"
fill="#000000" stroke="none">
<path d="M2447 20469 c-519 -37 -1008 -227 -1437 -557 -190 -146 -461 -445
-594 -656 -205 -323 -336 -686 -393 -1086 -17 -119 -18 -492 -18 -7930 0
-7438 1 -7811 18 -7930 60 -420 200 -794 420 -1125 105 -158 187 -256 341
-410 420 -420 919 -666 1526 -752 119 -17 492 -18 7930 -18 7438 0 7811 1
7930 18 616 88 1141 351 1561 783 443 457 695 1027 739 1674 8 120 10 2268 8
7875 -3 7298 -4 7716 -21 7825 -62 403 -191 758 -393 1076 -186 294 -514 622
-808 808 -318 202 -673 331 -1076 393 -109 17 -523 18 -7870 19 -4265 1 -7803
-2 -7863 -7z m15673 -1336 c527 -133 902 -514 1016 -1033 18 -83 19 -307 19
-7855 0 -6570 -2 -7781 -14 -7840 -107 -543 -523 -959 -1066 -1066 -59 -12
-1271 -14 -7845 -14 l-7775 0 -91 22 c-527 129 -906 512 -1020 1033 -18 83
-19 307 -19 7860 0 7553 1 7777 19 7860 124 564 573 979 1141 1053 17 2 3522
3 7790 3 l7760 -1 85 -22z"/>
<path d="M5210 15174 c-752 -114 -1323 -715 -1400 -1473 -14 -144 -14 -3986 1
-4119 45 -410 223 -770 517 -1042 223 -207 475 -338 794 -412 90 -21 114 -22
871 -25 l777 -4 0 -227 c0 -183 -4 -245 -19 -318 -90 -435 -467 -794 -956
-909 -156 -37 -286 -45 -742 -45 l-423 0 0 -656 0 -656 558 5 c596 4 639 7
909 63 255 52 469 126 718 249 281 138 487 281 696 483 413 397 653 860 725
1392 11 89 14 696 14 3908 l0 3802 -1472 -1 c-1227 -1 -1489 -3 -1568 -15z
m1560 -3529 l0 -2235 -517 0 c-421 0 -530 3 -581 15 -190 45 -337 194 -377
382 -22 102 -22 3574 0 3676 40 189 210 355 396 386 30 5 285 9 567 10 l512 1
0 -2235z"/>
<path d="M9250 11645 l0 -3545 740 0 740 0 2 2888 3 2887 743 3 742 2 0 -2890
0 -2890 745 0 745 0 0 2891 0 2890 543 -3 c531 -4 543 -4 601 -26 87 -32 140
-66 202 -129 63 -65 117 -168 133 -257 8 -42 11 -863 11 -2713 l0 -2653 740 0
740 0 0 2753 c0 1733 -4 2787 -10 2847 -80 767 -651 1364 -1411 1475 -94 13
-448 15 -3058 15 l-2951 0 0 -3545z"/>
<path d="M9250 5945 l0 -655 3630 0 3630 0 0 655 0 655 -3630 0 -3630 0 0
-655z"/>
</g>
</svg>
