<svg version="1.1" id="Layer_1" xmlns="http://www.w3.org/2000/svg" xmlns:xlink="http://www.w3.org/1999/xlink" x="0px" y="0px"
	 width="100%" viewBox="0 0 800 460" enable-background="new 0 0 800 460" xml:space="preserve">
<path fill="#000000" opacity="1.000000" stroke="none" 
	d="
M0.999999,194.000000 
	C1.000000,129.704712 1.000000,65.409424 1.000000,1.000000 
	C183.020874,1.000000 365.041779,1.000000 547.801880,1.371447 
	C547.866882,2.153147 547.230530,2.834318 546.513062,2.934393 
	C523.151367,6.192922 501.592804,14.150000 482.018982,27.405531 
	C480.335663,28.545511 478.360016,29.597569 476.395294,29.913170 
	C470.752838,30.819536 465.024109,31.177673 459.368988,32.018360 
	C441.610352,34.658340 425.171997,41.284340 410.111145,50.663651 
	C393.687531,60.891640 379.181549,73.520081 368.824188,90.316887 
	C367.983551,91.680183 365.658600,92.859047 364.018860,92.864929 
	C358.599243,92.884392 353.180664,92.115387 347.756012,92.036201 
	C337.902649,91.892403 327.971039,91.275078 318.208374,92.237556 
	C306.252777,93.416214 294.441986,96.044380 282.558838,97.986031 
	C277.463531,98.818588 275.326874,101.114868 276.009155,105.289513 
	C276.625336,109.059784 280.133667,110.473587 284.912140,109.615547 
	C294.525452,107.889328 304.182953,106.374840 313.860962,105.057388 
	C318.909027,104.370193 324.035889,104.056526 329.133301,103.979561 
	C339.695618,103.820084 350.261993,103.931458 361.278809,103.931458 
	C355.562317,119.270309 353.060333,134.039032 357.018188,149.323380 
	C361.461273,166.481766 370.725739,179.712784 387.520447,186.967545 
	C389.364502,187.764099 391.321594,189.921066 391.873718,191.836853 
	C397.743225,212.203644 410.158661,227.397797 428.412201,237.672012 
	C443.608276,246.225311 460.011505,251.234894 477.577576,252.132584 
	C478.765442,252.193283 480.723755,254.011307 480.859772,255.182083 
	C482.040649,265.347107 487.148071,273.544769 494.573456,279.840393 
	C510.724182,293.533844 530.359680,299.182526 550.900085,301.917511 
	C559.685852,303.087372 568.588135,303.826599 577.445435,303.909241 
	C590.546631,304.031525 603.654114,303.321198 616.761169,303.188477 
	C618.131470,303.174561 619.896118,304.360962 620.819946,305.516479 
	C623.037415,308.290100 624.264221,312.161804 626.945740,314.208160 
	C643.021301,326.476318 661.713745,328.999939 680.991577,326.256561 
	C690.760742,324.866302 700.160950,320.883331 709.978516,317.998962 
	C710.707703,319.773499 711.809875,322.455536 713.125610,325.657318 
	C711.407471,326.121185 709.768127,326.541718 708.141479,327.006531 
	C697.941895,329.920959 687.928223,333.019470 681.184082,342.229736 
	C676.902527,348.076904 675.047363,358.890503 679.953735,365.611328 
	C685.300537,372.935547 692.783691,374.912933 701.412720,375.905701 
	C703.216431,375.929840 704.607849,375.881500 706.395203,375.904785 
	C707.714111,375.705139 708.620667,375.339874 709.562317,375.176849 
	C721.048279,373.188660 730.380737,360.581451 729.084717,350.018311 
	C728.569275,345.817352 729.000000,341.500244 729.000000,337.156067 
	C746.375671,336.060608 762.359741,340.223022 778.396179,344.094879 
	C785.837769,345.891541 792.758606,350.809387 801.000000,348.000000 
	C801.000000,385.618011 801.000000,423.235992 801.000000,461.000000 
	C725.979187,461.000000 650.958252,461.000000 575.173950,460.671997 
	C576.440002,459.504974 578.454956,458.628906 580.501099,457.832886 
	C592.916931,453.002838 597.750793,442.469604 593.966675,429.964081 
	C591.366943,421.372681 583.781555,418.875916 576.153442,417.061188 
	C568.015991,415.125275 559.746765,413.749512 551.572449,411.958771 
	C548.160583,411.211365 545.353577,409.586182 546.005249,405.292450 
	C546.616821,401.262665 549.481812,399.724182 553.059631,399.000397 
	C554.637085,398.681305 556.215210,398.365234 557.789978,398.033081 
	C562.970947,396.940369 571.033020,400.648438 573.729980,405.186005 
	C574.391602,406.299255 575.597412,407.818451 576.616028,407.868408 
	C582.047241,408.134735 587.498474,407.993835 592.875916,407.993835 
	C593.813477,396.075897 587.408447,387.825562 577.191711,384.648712 
	C565.197998,380.919312 553.351746,381.382019 541.271057,384.842102 
	C529.339172,388.259552 522.907227,401.304779 527.086304,412.679016 
	C530.240479,421.263977 537.954651,424.161102 546.070251,425.967560 
	C553.765747,427.680481 561.505615,429.205231 569.253418,430.667328 
	C572.846924,431.345459 575.311279,433.740723 574.713806,436.863831 
	C574.272827,439.168945 571.592773,441.834717 569.263428,442.838440 
	C562.853333,445.600525 555.975220,445.467316 549.552856,442.841614 
	C547.007385,441.800873 545.158142,439.035492 543.023010,437.022461 
	C541.996948,436.055084 541.088989,434.197937 540.048645,434.139069 
	C534.784363,433.841339 529.494141,434.002075 523.872131,434.002075 
	C524.049194,436.968781 523.827209,439.508606 524.407593,441.849457 
	C526.507507,450.319183 531.560120,456.000885 540.325928,458.135895 
	C541.701538,458.470947 542.782654,460.015015 544.000000,461.000000 
	C527.312439,461.000000 510.624878,461.000000 493.172974,460.668945 
	C492.739227,459.966278 493.025299,459.326141 493.407104,459.262787 
	C501.078644,457.989624 506.965576,453.644287 511.562012,447.794769 
	C515.504944,442.776886 517.853271,436.866608 517.973816,430.000031 
	C512.457214,430.000031 507.447815,429.715027 502.501556,430.149109 
	C500.683411,430.308716 498.281342,431.755646 497.400421,433.321381 
	C492.817932,441.466003 484.529572,445.045074 475.701630,442.210236 
	C464.613739,438.649658 460.473267,432.364594 461.083282,418.505554 
	C461.528076,408.401337 467.645905,402.536316 476.991272,400.216187 
	C484.161255,398.436096 494.948730,401.606506 497.395416,409.712860 
	C497.798370,411.048004 499.699585,412.770203 500.998627,412.850311 
	C506.609070,413.196442 512.253052,412.998413 517.867188,412.998413 
	C517.992493,407.173126 514.472961,398.281555 510.944275,394.431396 
	C500.447052,382.977966 487.361328,380.566345 472.663177,382.950958 
	C452.362915,386.244415 441.479736,400.176758 440.179993,418.316406 
	C438.861359,436.718933 447.048706,453.279907 468.032379,459.101562 
	C468.494843,459.229889 468.683563,460.345154 469.000000,461.000000 
	C412.645782,461.000000 356.291534,461.000000 299.174225,460.674011 
	C299.214264,459.894623 299.972626,459.318237 300.827515,459.007141 
	C308.535065,456.202515 315.546692,452.617035 320.286499,445.376678 
	C325.978668,436.681488 328.167267,427.532379 327.174561,417.089783 
	C326.287659,407.760620 323.346985,399.567413 316.635223,393.317200 
	C305.844849,383.268860 292.911407,380.609436 278.339600,382.881592 
	C252.672958,386.883698 242.373718,408.091583 246.700104,431.240906 
	C249.406738,445.723328 258.709595,454.198395 272.040985,459.033661 
	C272.828156,459.319214 273.353027,460.327881 274.000000,461.000000 
	C226.979111,461.000000 179.958206,461.000000 132.174225,460.674011 
	C132.788742,459.594452 134.085449,458.569092 135.556992,458.130859 
	C146.046936,455.006989 152.986069,448.096619 157.302307,438.236664 
	C160.923599,429.964172 160.853622,421.213226 159.686935,412.657532 
	C158.551514,404.330994 154.478104,396.855927 147.883163,391.524750 
	C136.099899,381.999359 122.111351,379.692444 107.884918,383.242401 
	C82.728104,389.519897 75.721535,410.460114 79.479111,430.834167 
	C82.161674,445.379333 91.298767,454.750153 105.538849,459.062469 
	C106.164139,459.251831 106.519127,460.333801 107.000008,461.000000 
	C72.992241,461.000000 38.984467,461.011292 4.976795,460.957794 
	C3.650702,460.955688 2.325581,460.333313 1.382992,459.153046 
	C8.444644,458.622467 15.123310,458.938812 22.214621,459.274719 
	C22.214621,451.651154 22.214621,444.904388 22.214621,438.089325 
	C29.591217,438.089325 36.567719,438.089325 43.760666,438.089325 
	C46.512909,443.504303 49.130634,449.024139 52.120766,454.334290 
	C53.147266,456.157257 54.999855,458.635132 56.655914,458.782593 
	C62.674778,459.318542 68.770256,458.994049 75.510017,458.994049 
	C70.494522,449.995087 65.897217,441.746429 61.737953,434.283722 
	C64.198547,431.535004 67.126122,429.173492 68.882797,426.135010 
	C74.574623,416.290161 74.708336,405.971436 68.917152,396.240143 
	C63.902992,387.814545 55.456799,385.027710 46.005688,385.008240 
	C31.003847,384.977356 16.001902,385.000000 1.000000,385.000000 
	C1.000000,373.979095 1.000000,362.958221 1.382989,351.121735 
	C8.440639,350.623474 15.115299,350.940796 22.000000,351.268097 
	C22.000000,344.096802 22.000000,337.788086 22.000000,331.479340 
	C22.000000,325.172272 22.000000,318.865204 22.000000,312.558167 
	C25.812422,321.392456 28.999781,330.238159 31.959272,339.159454 
	C35.937325,351.151123 35.861614,351.093018 48.266163,351.062103 
	C51.141190,351.054962 52.454540,350.429169 53.414516,347.359100 
	C57.094131,335.591370 61.263023,323.976654 65.249336,312.304840 
	C65.577576,312.380493 65.905815,312.456146 66.234055,312.531799 
	C66.234055,325.283936 66.234055,338.036072 66.234055,350.716125 
	C72.977180,350.716125 79.379448,350.716125 85.735985,350.716125 
	C85.735985,326.041992 85.735985,301.652649 85.735985,277.189545 
	C77.035904,277.189545 68.600822,277.189545 60.435291,277.189545 
	C55.055351,293.319855 49.759365,309.198456 44.314964,325.522034 
	C43.613697,324.743530 43.182442,324.471161 43.057949,324.096771 
	C38.356724,309.959442 33.544769,295.856140 29.102142,281.637512 
	C27.954725,277.965240 26.242264,276.764282 22.487677,276.916107 
	C15.335685,277.205322 8.163690,277.000000 1.000000,277.000000 
	C1.000000,258.312439 1.000000,239.624878 1.319658,220.175354 
	C2.079000,219.877319 2.757317,220.268631 2.923743,220.815674 
	C8.220366,238.225449 23.917900,246.350403 40.020710,246.895477 
	C50.199600,247.240021 59.208431,243.495148 67.098061,235.607452 
	C67.098061,238.911728 67.098061,241.305008 67.098061,243.767303 
	C71.519615,243.767303 75.598679,243.767303 79.771194,243.767303 
	C79.771194,230.467148 79.771194,217.400772 79.771194,204.223923 
	C66.474709,204.223923 53.407932,204.223923 40.224342,204.223923 
	C40.224342,208.520386 40.224342,212.590149 40.224342,216.976196 
	C46.546074,216.976196 52.653057,216.976196 60.323742,216.976196 
	C57.881336,220.242325 56.570717,223.188324 54.311047,224.820023 
	C41.182652,234.299988 24.220860,226.155701 21.621206,212.495209 
	C20.037148,204.171387 23.161034,191.920792 32.312752,187.901703 
	C39.494263,184.747849 51.215595,184.202408 57.878944,193.378372 
	C58.416130,194.118134 59.480385,194.911011 60.315704,194.928818 
	C66.460663,195.059708 72.609688,194.999512 78.989197,194.999512 
	C77.212242,187.884262 74.695732,181.584305 69.040283,177.003235 
	C60.275494,169.903534 50.181980,167.486755 39.053944,167.946899 
	C23.153004,168.604431 8.502224,176.887329 2.942981,192.545380 
	C2.717600,193.180176 1.666425,193.521790 0.999999,194.000000 
M235.639297,395.111115 
	C231.297897,387.325104 223.706848,385.357239 215.843887,385.124481 
	C201.191345,384.690796 186.516785,384.992615 171.851440,385.013092 
	C170.593475,385.014862 169.335785,385.201508 168.343506,385.281006 
	C168.343506,410.088715 168.343506,434.493805 168.343506,457.999603 
	C185.265289,457.999603 201.857727,458.430969 218.410049,457.803680 
	C225.833115,457.522339 233.048676,454.970123 237.087753,447.505341 
	C243.120804,436.355347 240.221985,427.088684 228.200073,419.456268 
	C238.390106,412.838776 239.973114,404.290741 235.639297,395.111115 
M405.000000,312.500000 
	C405.000000,325.253021 405.000000,338.006012 405.000000,350.731750 
	C411.948822,350.731750 418.348969,350.731750 425.135864,350.731750 
	C425.135864,344.063568 425.135864,337.654510 425.135864,331.196960 
	C432.608185,331.196960 439.686401,331.196960 446.825378,331.196960 
	C449.670532,336.770477 452.314056,342.287476 455.314209,347.603180 
	C456.129242,349.047302 457.967438,350.758301 459.426971,350.846771 
	C465.445679,351.211548 471.499359,350.999542 478.004517,350.999542 
	C475.399414,346.397888 473.098419,342.379761 470.842957,338.336243 
	C468.612091,334.336884 466.427216,330.311859 465.059326,327.821930 
	C468.536102,322.359406 472.298981,318.051117 474.269836,313.038239 
	C479.376221,300.050201 472.979065,281.355194 456.843842,278.999298 
	C450.738739,278.107849 444.580841,277.257263 438.427612,277.086700 
	C427.354218,276.779785 416.266205,277.000000 405.000000,277.000000 
	C405.000000,288.898438 405.000000,300.199219 405.000000,312.500000 
M143.059097,172.019684 
	C125.171677,171.040482 107.284256,170.061279 89.207245,169.071686 
	C89.207245,194.845703 89.207245,219.233627 89.207245,243.795258 
	C95.815636,243.795258 102.216202,243.795258 109.009995,243.795258 
	C109.009995,236.861465 109.009995,230.117813 109.009995,223.000000 
	C115.013100,223.000000 120.644630,223.231171 126.244041,222.907211 
	C129.264969,222.732452 130.705566,224.016388 131.905731,226.405960 
	C134.211899,230.997711 136.525284,235.593536 139.073044,240.052032 
	C139.943649,241.575531 141.455338,243.726532 142.794540,243.817474 
	C148.804962,244.225662 154.858719,243.995285 162.013672,243.995285 
	C157.031387,235.095993 152.618500,227.213745 148.192352,219.307816 
	C157.490204,213.530869 160.519058,204.602493 159.840027,194.601318 
	C159.135635,184.226547 153.936157,176.310974 143.059097,172.019684 
M358.600342,307.000000 
	C356.825653,307.000000 355.050964,307.000000 353.254272,307.000000 
	C353.254272,302.419678 353.254272,298.348663 353.254272,293.889313 
	C367.576599,293.889313 381.649811,293.889313 395.744385,293.889313 
	C395.744385,288.084686 395.744385,282.680115 395.744385,277.252014 
	C374.421082,277.252014 353.354401,277.252014 332.247131,277.252014 
	C332.247131,301.903961 332.247131,326.303070 332.247131,350.756714 
	C353.562042,350.756714 374.628937,350.756714 395.754395,350.756714 
	C395.754395,345.438812 395.754395,340.367523 395.754395,335.000000 
	C388.547699,335.000000 381.582458,335.000000 374.617218,335.000000 
	C367.508331,335.000000 360.399445,335.000000 353.246155,335.000000 
	C353.246155,330.436432 353.246155,326.365204 353.246155,322.000000 
	C362.786896,322.000000 372.084564,322.000000 381.382233,322.000000 
	C395.370728,322.000000 395.373260,321.999908 394.939484,308.077179 
	C394.930908,307.801544 394.646027,307.534546 394.338348,307.000000 
	C382.845184,307.000000 371.211182,307.000000 358.600342,307.000000 
M183.998169,243.999008 
	C188.615540,243.654343 187.404236,239.369400 188.360641,236.889404 
	C189.496933,233.942902 190.700134,232.826004 193.911606,232.919083 
	C202.232849,233.160278 210.568375,233.122391 218.892685,232.941559 
	C222.366348,232.866089 224.566330,233.280853 225.378189,237.444946 
	C225.843750,239.832779 228.123856,243.468018 229.946640,243.698532 
	C236.134003,244.481049 242.481476,243.997406 249.049911,243.997406 
	C239.922958,219.793854 230.995453,195.996140 221.860764,172.278229 
	C221.428772,171.156570 219.176025,170.145370 217.739777,170.101028 
	C210.584320,169.880051 203.418060,170.034592 196.256195,169.980347 
	C193.908539,169.962570 192.759201,170.380432 191.801407,173.170456 
	C188.164886,183.763580 183.846481,194.121735 179.823608,204.583344 
	C174.837143,217.550858 169.891022,230.533859 164.740128,243.999954 
	C171.176422,243.999954 177.131668,243.999954 183.998169,243.999008 
M163.533829,317.023926 
	C159.024292,305.225616 154.383820,293.474670 150.091919,281.597687 
	C148.934341,278.394287 147.684235,276.736237 143.955734,276.911987 
	C137.314667,277.225006 130.642380,277.163513 123.995102,276.925323 
	C121.036591,276.819275 119.912041,277.817902 118.896889,280.594330 
	C113.955460,294.109161 108.666130,307.496490 103.538780,320.943726 
	C99.752487,330.873901 96.025902,340.826782 92.234024,350.872070 
	C99.642975,350.872070 106.615440,350.872070 113.467628,350.872070 
	C114.300217,348.636139 115.495682,346.603119 115.760185,344.455475 
	C116.224411,340.686157 118.063354,339.788269 121.635712,339.916168 
	C129.280121,340.189789 136.958252,340.311005 144.589249,339.890076 
	C149.634445,339.611847 152.586105,340.662109 153.212662,346.265869 
	C153.402405,347.962982 155.571091,350.669067 157.004303,350.784180 
	C163.234146,351.284485 169.527100,350.998901 176.208893,350.998901 
	C172.002274,339.559326 167.983734,328.631287 163.533829,317.023926 
M201.500000,277.000000 
	C190.072479,277.000000 178.644943,277.000000 167.284637,277.000000 
	C167.284637,283.307404 167.284637,289.044739 167.284637,295.172485 
	C176.306152,295.172485 185.048691,295.172485 194.167572,295.172485 
	C194.167572,313.968689 194.167572,332.371246 194.167572,350.719330 
	C201.300110,350.719330 208.037827,350.719330 215.159668,350.719330 
	C215.159668,332.039337 215.159668,313.636780 215.159668,294.845551 
	C224.288025,294.845551 233.031143,294.845551 241.999969,294.845551 
	C241.999969,290.145813 241.817108,285.828461 242.057205,281.534729 
	C242.253067,278.032227 240.995377,276.880310 237.482391,276.933411 
	C225.823929,277.109741 214.161133,277.000000 201.500000,277.000000 
M319.380676,295.000000 
	C320.822632,295.000000 322.264587,295.000000 323.752075,295.000000 
	C323.752075,288.766815 323.752075,283.029541 323.752075,277.000458 
	C299.881073,277.000458 276.256317,276.949677 252.633606,277.145874 
	C251.413727,277.156036 249.273956,279.196991 249.167038,280.431488 
	C248.756638,285.169830 249.000885,289.964874 249.000885,295.118500 
	C258.583221,295.118500 267.658203,295.118500 277.115417,295.118500 
	C277.115417,313.915375 277.115417,332.318909 277.115417,350.744110 
	C283.915405,350.744110 290.319031,350.744110 297.111511,350.744110 
	C297.111511,332.088684 297.111511,313.685181 297.111511,295.000000 
	C304.467346,295.000000 311.433838,295.000000 319.380676,295.000000 
M264.999359,223.054871 
	C264.999359,229.978729 264.999359,236.902573 264.999359,243.700699 
	C272.009705,243.700699 278.413422,243.700699 285.000000,243.700699 
	C285.000000,236.927246 284.954559,230.451340 285.035919,223.977020 
	C285.053528,222.574509 285.164764,220.962692 285.847870,219.812576 
	C291.017181,211.109436 296.388672,202.526703 301.600098,193.848129 
	C306.201813,186.184784 310.678345,178.446259 315.645294,170.001083 
	C308.543915,170.001083 302.282318,169.824036 296.045410,170.137558 
	C294.653839,170.207504 292.927704,171.730621 292.080872,173.050156 
	C289.218018,177.510910 286.691559,182.186966 284.016754,186.769196 
	C281.160706,191.661926 278.282196,196.541550 275.054047,202.039093 
	C273.961487,200.277069 273.455536,199.481323 272.969238,198.673721 
	C267.659821,189.856613 262.385834,181.017822 256.999878,172.247742 
	C256.416565,171.297913 255.208633,170.131653 254.259567,170.103409 
	C247.884399,169.913696 241.500900,170.004684 234.112579,170.004684 
	C236.035049,173.400574 237.381607,175.886688 238.826691,178.314163 
	C247.535080,192.942505 256.266083,207.557388 264.999359,223.054871 
M391.494629,402.000000 
	C395.596893,402.000000 399.699127,402.000000 403.711914,402.000000 
	C403.711914,396.020172 403.711914,390.615387 403.711914,385.283875 
	C378.689270,385.283875 353.955719,385.283875 329.286438,385.283875 
	C329.286438,390.976593 329.286438,396.381317 329.286438,402.177307 
	C338.643921,402.177307 347.720642,402.177307 357.176697,402.177307 
	C357.176697,421.310333 357.176697,440.048218 357.176697,458.712036 
	C363.980133,458.712036 370.385620,458.712036 377.177246,458.712036 
	C377.177246,439.689209 377.177246,420.951385 377.177246,402.000000 
	C381.880127,402.000000 386.190063,402.000000 391.494629,402.000000 
M415.650574,385.000000 
	C413.601196,384.890503 411.905212,384.635834 411.925476,387.860229 
	C412.066925,410.352173 411.947113,432.845886 412.144897,455.336975 
	C412.155731,456.567108 414.196167,458.755493 415.399078,458.832916 
	C421.150757,459.203278 426.939484,458.999054 432.756378,458.999054 
	C432.756378,434.104462 432.756378,409.704681 432.756378,385.000000 
	C427.219147,385.000000 421.920013,385.000000 415.650574,385.000000 
z"/>
<path fill="#FFAA00" opacity="1.000000" stroke="none" 
	d="
M801.000000,347.550018 
	C792.758606,350.809387 785.837769,345.891541 778.396179,344.094879 
	C762.359741,340.223022 746.375671,336.060608 729.000000,337.156067 
	C729.000000,341.500244 728.569275,345.817352 729.084717,350.018311 
	C730.380737,360.581451 721.048279,373.188660 709.562317,375.176849 
	C708.620667,375.339874 707.714111,375.705139 706.317383,375.561157 
	C703.941162,373.345764 702.261230,373.113312 701.000305,375.833191 
	C692.783691,374.912933 685.300537,372.935547 679.953735,365.611328 
	C675.047363,358.890503 676.902527,348.076904 681.184082,342.229736 
	C687.928223,333.019470 697.941895,329.920959 708.141479,327.006531 
	C709.768127,326.541718 711.407471,326.121185 713.125610,325.657318 
	C711.809875,322.455536 710.707703,319.773499 709.978516,317.998962 
	C700.160950,320.883331 690.760742,324.866302 680.991577,326.256561 
	C661.713745,328.999939 643.021301,326.476318 626.945740,314.208160 
	C624.264221,312.161804 623.037415,308.290100 620.819946,305.516479 
	C619.896118,304.360962 618.131470,303.174561 616.761169,303.188477 
	C603.654114,303.321198 590.546631,304.031525 577.445435,303.909241 
	C568.588135,303.826599 559.685852,303.087372 550.900085,301.917511 
	C530.359680,299.182526 510.724182,293.533844 494.573456,279.840393 
	C487.148071,273.544769 482.040649,265.347107 480.859772,255.182083 
	C480.723755,254.011307 478.765442,252.193283 477.577576,252.132584 
	C460.011505,251.234894 443.608276,246.225311 428.412201,237.672012 
	C410.158661,227.397797 397.743225,212.203644 391.873718,191.836853 
	C391.321594,189.921066 389.364502,187.764099 387.520447,186.967545 
	C370.725739,179.712784 361.461273,166.481766 357.018188,149.323380 
	C353.060333,134.039032 355.562317,119.270309 361.278809,103.931458 
	C350.261993,103.931458 339.695618,103.820084 329.133301,103.979561 
	C324.035889,104.056526 318.909027,104.370193 313.860962,105.057388 
	C304.182953,106.374840 294.525452,107.889328 284.912140,109.615547 
	C280.133667,110.473587 276.625336,109.059784 276.009155,105.289513 
	C275.326874,101.114868 277.463531,98.818588 282.558838,97.986031 
	C294.441986,96.044380 306.252777,93.416214 318.208374,92.237556 
	C327.971039,91.275078 337.902649,91.892403 347.756012,92.036201 
	C353.180664,92.115387 358.599243,92.884392 364.018860,92.864929 
	C365.658600,92.859047 367.983551,91.680183 368.824188,90.316887 
	C379.181549,73.520081 393.687531,60.891640 410.111145,50.663651 
	C425.171997,41.284340 441.610352,34.658340 459.368988,32.018360 
	C465.024109,31.177673 470.752838,30.819536 476.395294,29.913170 
	C478.360016,29.597569 480.335663,28.545511 482.018982,27.405531 
	C501.592804,14.150000 523.151367,6.192922 546.513062,2.934393 
	C547.230530,2.834318 547.866882,2.153147 548.270508,1.371447 
	C564.354248,1.000000 580.708435,1.000000 597.246216,1.357942 
	C598.099854,2.134922 598.725281,2.809615 599.446594,2.935909 
	C622.196167,6.918887 642.362427,15.883205 658.582153,32.864704 
	C660.247986,34.608776 663.362000,35.904621 665.772156,35.855160 
	C685.480286,35.450722 703.944885,39.699215 721.076782,49.551319 
	C741.504883,61.298981 754.443115,78.800140 761.016663,101.258316 
	C764.875366,114.441307 766.125854,127.919579 766.086243,141.593582 
	C766.081665,143.182281 767.063538,144.894028 767.930054,146.344452 
	C771.906555,153.000687 776.619385,159.291962 779.930786,166.255020 
	C786.770020,180.636215 785.979004,195.912872 782.806580,210.970200 
	C780.988831,219.597641 778.054443,228.077255 771.757812,235.062408 
	C769.614685,237.759979 767.828674,240.437027 765.978271,243.344604 
	C765.728882,243.870743 765.462341,244.026535 764.744019,244.035980 
	C763.596558,244.724762 762.819092,245.420105 761.912598,246.422882 
	C755.959473,253.610306 749.931396,260.221710 741.947937,264.793457 
	C740.792114,265.455383 740.133118,267.826263 740.076050,269.435822 
	C739.483398,286.156281 731.255005,298.871674 719.642273,309.746674 
	C721.598694,314.656372 723.617371,319.722443 725.370300,324.121582 
	C736.790588,325.259125 748.069031,325.456909 758.927368,327.693848 
	C773.125366,330.618835 786.991272,335.156250 801.000000,339.000000 
	C801.000000,341.700012 801.000000,344.400024 801.000000,347.550018 
M460.104340,43.989513 
	C440.662720,47.584064 423.135986,55.580948 406.665802,67.172676 
	C406.373566,67.316360 406.157837,67.535408 405.380188,68.118858 
	C402.291504,70.760086 399.202820,73.401314 395.361847,76.025490 
	C391.604279,76.916306 389.191132,79.005623 388.781830,83.731750 
	C385.726349,87.484917 382.670868,91.238091 380.164917,94.316261 
	C392.471893,100.297798 404.371124,106.081177 415.654572,111.565239 
	C423.807098,106.696220 432.114777,101.734543 440.889526,96.493942 
	C440.635956,76.974678 448.489044,59.737755 462.157715,44.259071 
	C462.310028,43.922405 462.462372,43.585739 462.614716,43.249073 
	C462.052155,43.472111 461.489594,43.695148 460.104340,43.989513 
M703.343140,214.053528 
	C705.987183,215.643188 708.631226,217.232864 711.515381,218.966873 
	C716.358154,215.132477 721.571594,211.680283 725.974792,207.395554 
	C741.047302,192.728668 749.628235,174.641937 752.995972,153.983276 
	C753.564331,150.497131 752.232544,147.994049 749.320190,146.032089 
	C738.998413,139.078476 727.811951,133.862366 715.732544,131.174423 
	C705.114136,128.811569 694.245056,127.496056 683.433899,126.137611 
	C680.924438,125.822281 677.842346,124.627480 675.676514,128.440445 
	C671.416260,135.940750 666.238403,142.665421 659.392029,148.363235 
	C643.373901,161.694122 624.763611,168.387726 604.692078,172.101257 
	C603.339783,172.351471 601.541870,173.830490 601.168762,175.096725 
	C599.669617,180.184998 598.649719,185.414474 597.700134,189.521683 
	C614.919006,191.655136 632.486023,193.445892 649.922180,196.097351 
	C668.465515,198.917206 686.074097,204.932251 703.343140,214.053528 
M432.012299,144.513321 
	C434.166534,154.591980 434.005951,164.581467 428.003815,173.271576 
	C422.238434,181.618866 414.978119,188.514954 403.522125,189.174255 
	C408.367310,204.055130 416.676422,215.411865 428.834503,223.971268 
	C442.170990,233.360275 457.384460,237.637619 473.247559,239.923401 
	C477.808899,240.580673 481.849762,240.560730 483.635529,234.182938 
	C486.075287,225.469101 492.587280,219.218231 499.878876,214.046478 
	C511.829681,205.570129 525.361633,200.600220 539.439575,197.171951 
	C542.586243,196.405685 542.904358,195.130646 543.056763,192.536438 
	C543.453674,185.782379 544.131958,179.044861 544.718323,172.058426 
	C539.071472,170.230698 532.654175,168.074738 526.167358,166.153336 
	C525.352234,165.911880 524.079163,166.764221 523.173645,167.349960 
	C513.485596,173.616684 502.719330,174.553452 491.934265,172.309296 
	C472.974640,168.364197 460.757019,155.411713 452.201843,139.060425 
	C447.500488,130.074875 444.610382,120.141670 440.773438,110.301834 
	C436.389435,112.924240 431.573181,115.623558 426.961823,118.636452 
	C424.473785,120.262024 423.409973,122.210548 425.089050,125.668556 
	C427.881500,131.419464 429.745575,137.621155 432.012299,144.513321 
M641.377319,250.998123 
	C633.862366,250.333771 626.332703,249.803070 618.835388,248.978516 
	C600.700500,246.984039 583.661438,241.632248 568.313660,231.591553 
	C566.175415,230.192703 565.170349,230.011063 562.829895,231.432831 
	C549.174316,239.728333 534.819397,246.468796 518.851074,249.052872 
	C510.330322,250.431747 501.793304,251.710052 493.004761,253.073898 
	C493.004761,253.335922 492.910217,254.176498 493.031738,254.984573 
	C493.149628,255.768539 493.517242,256.511566 493.727539,257.285522 
	C496.912415,269.005066 506.139709,275.135773 516.053711,279.826691 
	C536.282104,289.397919 558.171936,292.075958 580.228821,292.867615 
	C591.790894,293.282593 603.400757,292.278412 614.991638,292.041168 
	C617.587585,291.988037 618.703125,291.326202 619.087463,288.441864 
	C621.485046,270.451202 638.723328,257.647644 656.130188,259.192627 
	C668.591248,260.298706 679.778320,265.702545 689.890625,273.224121 
	C691.244568,274.231171 693.924988,274.691864 695.427429,274.061676 
	C705.285400,269.926941 714.938721,265.306305 724.772705,261.111298 
	C727.677612,259.872101 727.690979,258.071716 726.924988,255.764755 
	C724.449890,248.310226 720.111572,242.145660 714.397583,236.732590 
	C711.839905,234.309601 710.104126,233.880722 706.809448,235.480652 
	C692.122375,242.613007 676.702515,247.452988 660.352661,249.017166 
	C654.327881,249.593552 648.318176,250.327438 641.377319,250.998123 
M573.949463,99.682549 
	C572.762329,97.736855 571.508850,95.828156 570.398560,93.839539 
	C562.448608,79.600090 551.861206,67.765091 538.721558,58.065754 
	C534.876160,55.227142 531.979797,54.522469 528.152527,57.877228 
	C525.379944,60.307468 521.852234,61.851662 518.851562,64.050705 
	C509.076630,71.214340 501.349152,80.028267 496.771973,92.100388 
	C511.406097,95.638107 524.097046,102.029076 531.620178,115.341003 
	C539.054260,128.495193 540.535767,142.352859 534.065186,156.525146 
	C535.061462,156.848022 535.992432,157.116547 536.899963,157.448990 
	C545.389648,160.558975 552.373535,161.662308 559.490784,152.721146 
	C565.378113,145.325073 574.646851,140.562180 582.622559,134.922684 
	C585.010376,133.234329 586.639038,132.391205 585.148682,128.883377 
	C581.171631,119.522652 577.726624,109.935860 573.949463,99.682549 
M671.991333,94.718193 
	C671.661499,93.293137 671.151489,91.883301 671.029602,90.440666 
	C669.803772,75.931145 665.856873,62.356903 657.087708,50.524479 
	C656.143555,49.250401 653.937195,47.976593 652.507019,48.163330 
	C646.975464,48.885590 641.521240,50.199650 635.463379,51.407913 
	C641.883545,61.609577 645.499084,72.151360 643.785950,83.545815 
	C643.003723,88.748138 640.968750,94.488731 637.653198,98.429916 
	C631.070190,106.255058 621.860168,107.316231 612.098938,105.032326 
	C593.745117,100.737991 583.824829,78.985161 595.441833,63.302856 
	C599.882385,57.308399 605.978027,52.539955 611.461670,47.070938 
	C590.113708,38.674866 568.666382,41.040970 546.708374,49.008728 
	C560.315308,59.120884 571.387878,70.652832 578.990540,84.783737 
	C586.357971,98.477531 592.217407,112.982651 598.848389,127.368423 
	C619.688782,119.118042 642.580383,114.616669 666.253662,113.903839 
	C667.512634,113.865929 669.632385,112.611572 669.816223,111.634544 
	C670.810913,106.350304 671.321533,100.974937 671.991333,94.718193 
M679.556885,70.063858 
	C683.693848,84.441338 684.167297,98.978600 681.720093,113.416679 
	C693.976685,115.597755 706.687622,116.929642 718.839966,120.284821 
	C730.895630,123.613297 742.388855,128.979263 753.784912,133.320663 
	C754.183167,84.014687 720.057190,47.743763 670.846924,48.262177 
	C673.568481,55.246498 676.323303,62.316193 679.556885,70.063858 
M614.758118,236.993134 
	C621.604126,237.661926 628.453918,238.898743 635.295227,238.854141 
	C643.642029,238.799698 652.006653,237.889526 660.318909,236.953156 
	C673.764709,235.438477 686.577454,231.604843 699.013855,225.554321 
	C696.815552,224.268387 694.987793,222.768173 692.891846,222.044266 
	C680.846985,217.884079 668.876099,213.418060 656.621033,209.979034 
	C635.955872,204.180023 614.726074,202.459015 593.309814,203.065796 
	C592.119629,203.099518 590.610718,203.792480 589.837402,204.686523 
	C585.006226,210.272186 580.342285,216.002426 575.215210,222.175751 
	C578.350281,223.994507 581.580322,226.567688 585.260193,227.866516 
	C594.689941,231.194748 604.319580,233.956512 614.758118,236.993134 
M572.523071,12.000116 
	C547.216003,13.166500 522.816162,17.791492 500.934296,30.065308 
	C508.758484,32.423023 516.628357,34.851109 524.534607,37.154282 
	C528.817322,38.401863 532.352356,42.215618 537.677551,39.801903 
	C554.338623,32.250141 571.990112,29.110521 590.180969,30.124565 
	C601.592834,30.760715 612.663879,33.478199 622.462463,39.927498 
	C623.667603,40.720707 625.196472,42.083748 626.270203,41.839798 
	C632.473083,40.430618 638.584290,38.617989 645.457397,36.742546 
	C624.459534,18.174667 599.529724,13.461332 572.523071,12.000116 
M727.000427,222.497375 
	C725.279358,223.923279 723.558350,225.349197 722.633606,226.115326 
	C728.480042,234.905396 734.061401,243.296967 739.620300,251.654785 
	C753.244995,241.274750 765.262207,229.484024 770.303040,211.631271 
	C776.226257,190.653687 771.209778,168.903488 764.105103,162.419617 
	C763.789429,162.794769 763.271667,163.129120 763.189575,163.548721 
	C760.860046,175.453568 756.462219,186.524261 750.039795,196.817917 
	C743.986633,206.519684 736.687134,215.081589 727.000427,222.497375 
M485.336548,88.163910 
	C492.084686,70.849182 504.476440,58.388306 519.957275,47.734001 
	C508.593567,44.910915 497.327972,42.893650 486.028198,41.090469 
	C484.801666,40.894741 483.159821,41.644367 482.079712,42.450176 
	C473.444916,48.891994 465.959839,56.508469 461.073059,66.160126 
	C456.880035,74.441689 451.089172,82.442039 453.245605,92.278984 
	C463.782623,91.435341 474.162170,90.608185 484.538239,89.740311 
	C484.711670,89.725800 484.843750,89.216911 485.336548,88.163910 
M510.066010,160.027969 
	C510.398743,159.703934 510.731445,159.379913 511.064148,159.055878 
	C509.776489,158.047623 508.528900,156.982727 507.194916,156.040039 
	C495.696289,147.914200 488.655457,136.673874 485.075439,123.309860 
	C483.241699,116.464577 482.415649,109.349335 480.936829,101.279129 
	C472.009766,102.462601 462.746368,103.690659 453.117432,104.967178 
	C456.560272,123.759605 463.280457,139.662979 477.235565,151.641830 
	C486.437561,159.540634 496.795380,164.198517 510.066010,160.027969 
M373.866852,107.058517 
	C373.613617,107.247200 373.241333,107.380539 373.124176,107.632507 
	C367.536865,119.649689 365.025299,132.269836 368.259552,145.220871 
	C371.235260,157.136566 376.303833,168.117050 387.778595,173.946091 
	C389.260529,164.296112 389.545654,154.627304 392.438080,145.814194 
	C395.298492,137.098419 400.791687,129.246689 405.220276,120.844650 
	C400.024689,115.378487 389.680115,110.611336 373.866852,107.058517 
M660.826416,314.999390 
	C675.590698,315.731659 690.008118,314.775055 703.631897,305.742889 
	C699.637573,300.883148 695.761230,295.883148 691.514160,291.220947 
	C690.578857,290.194275 688.191345,289.752136 686.704102,290.082642 
	C673.903625,292.927399 661.171448,296.077576 648.385620,298.990692 
	C643.382080,300.130707 638.293823,300.898804 633.244141,301.836273 
	C632.648499,302.594910 632.052917,303.353546 631.457275,304.112213 
	C633.365051,305.085144 635.196960,306.266388 637.194092,306.994049 
	C644.733215,309.740753 652.325928,312.340027 660.826416,314.999390 
M612.728760,135.061462 
	C610.152588,136.027161 607.645020,137.449127 604.983765,137.849579 
	C601.173523,138.422928 600.668579,140.556458 600.981567,143.704758 
	C601.403076,147.944183 601.839050,152.194748 601.947632,156.448715 
	C602.032776,159.786987 603.736938,160.437454 606.469299,159.808121 
	C621.406189,156.367859 635.605042,151.262451 648.110657,142.032379 
	C654.933655,136.996521 660.906311,130.673874 662.148865,126.537003 
	C645.683655,127.224693 629.426331,130.062759 612.728760,135.061462 
M552.247986,223.961456 
	C553.392578,223.125763 554.537170,222.290070 555.414856,221.649231 
	C553.020630,217.964706 550.838562,214.128052 548.138428,210.699463 
	C547.132812,209.422577 544.540588,208.060913 543.309753,208.505188 
	C532.716614,212.328842 522.024048,216.036362 511.856781,220.829758 
	C503.769867,224.642349 497.183350,230.660980 493.775604,240.218643 
	C514.808594,239.478134 533.830139,234.196579 552.247986,223.961456 
M517.008789,115.513702 
	C510.502899,109.697548 503.154999,105.575691 494.431702,103.858002 
	C493.169983,122.323494 505.211456,144.743042 523.577820,151.607117 
	C524.717163,147.010452 526.969543,142.439453 526.702393,138.020782 
	C526.210144,129.878143 523.154724,122.288864 517.008789,115.513702 
M603.890869,72.559845 
	C599.638245,79.364914 603.870544,86.552391 609.706482,91.139427 
	C613.286316,93.953117 621.815491,95.527893 626.804810,92.121170 
	C630.821167,89.378761 633.819397,83.951599 632.944092,78.603134 
	C631.597046,70.372322 629.045959,62.575584 623.310120,55.855694 
	C615.648743,59.732334 608.444031,64.039375 603.890869,72.559845 
M410.165131,174.973709 
	C422.828400,165.581009 424.933716,144.088150 414.187866,131.017227 
	C402.931213,144.431656 399.383392,159.807480 401.451691,177.604401 
	C404.271484,176.727921 406.835175,175.931046 410.165131,174.973709 
M710.584351,363.847870 
	C718.917175,356.450653 718.631775,347.100861 716.248474,336.035858 
	C708.889160,339.343506 701.620667,342.305786 694.651733,345.856171 
	C690.445496,347.999054 688.301392,352.067291 689.122192,356.839539 
	C689.878723,361.237823 693.736572,362.438049 697.533203,362.960602 
	C701.575684,363.516968 705.675293,363.658447 710.584351,363.847870 
M588.011108,179.462372 
	C588.378662,177.800659 588.746216,176.138931 589.219238,174.000183 
	C587.285645,174.000183 585.978699,174.000183 584.671692,174.000183 
	C578.651123,174.000183 572.630554,174.002472 566.609985,173.999680 
	C556.503174,173.994980 556.365906,173.975250 555.096802,183.462418 
	C554.641357,186.867294 555.023804,190.384277 555.023804,193.711914 
	C564.891479,192.654449 574.311707,191.644928 584.004639,190.606186 
	C585.301086,187.260910 586.648376,183.784546 588.011108,179.462372 
M657.016785,285.487427 
	C663.968506,283.786102 670.920227,282.084808 677.871948,280.383484 
	C677.907593,279.786224 677.943237,279.188965 677.978882,278.591705 
	C671.200378,276.155579 664.594910,272.788208 657.605042,271.489441 
	C645.450439,269.231049 632.926270,275.693329 631.239197,290.337677 
	C639.712036,288.846558 647.994202,287.388977 657.016785,285.487427 
M720.986450,276.513855 
	C714.843079,279.246735 708.699707,281.979614 702.556030,284.712616 
	C706.006653,289.257385 709.678345,294.093353 713.483154,299.104675 
	C720.676331,291.564453 726.275635,283.655365 727.804382,273.228058 
	C725.621216,274.226135 723.610229,275.145447 720.986450,276.513855 
M569.200806,162.999802 
	C576.384399,162.782745 583.567993,162.565689 591.336121,162.330978 
	C590.675964,156.085251 590.118164,150.808609 589.498596,144.946991 
	C580.595520,149.288498 573.299072,154.560760 567.192017,161.444275 
	C567.108154,161.538818 567.959106,162.462616 569.200806,162.999802 
M561.993347,209.493210 
	C563.141785,211.036667 564.290222,212.580139 565.395325,214.065445 
	C571.745300,211.220306 574.618774,207.658386 574.369507,203.155014 
	C569.450745,203.893677 564.531677,204.632401 559.517334,205.385422 
	C560.119873,206.486313 560.798035,207.725479 561.993347,209.493210 
z"/>
<path fill="#000000" opacity="1.000000" stroke="none" 
	d="
M765.114075,244.042557 
	C765.462341,244.026535 765.728882,243.870743 766.292297,243.206177 
	C768.485535,240.238754 770.300232,237.640305 772.114929,235.041870 
	C778.054443,228.077255 780.988831,219.597641 782.806580,210.970200 
	C785.979004,195.912872 786.770020,180.636215 779.930786,166.255020 
	C776.619385,159.291962 771.906555,153.000687 767.930054,146.344452 
	C767.063538,144.894028 766.081665,143.182281 766.086243,141.593582 
	C766.125854,127.919579 764.875366,114.441307 761.016663,101.258316 
	C754.443115,78.800140 741.504883,61.298981 721.076782,49.551319 
	C703.944885,39.699215 685.480286,35.450722 665.772156,35.855160 
	C663.362000,35.904621 660.247986,34.608776 658.582153,32.864704 
	C642.362427,15.883205 622.196167,6.918887 599.446594,2.935909 
	C598.725281,2.809615 598.099854,2.134922 597.714844,1.357942 
	C665.611938,1.000000 733.223816,1.000000 801.000000,1.000000 
	C801.000000,113.354172 801.000000,225.708435 801.000000,338.531342 
	C786.991272,335.156250 773.125366,330.618835 758.927368,327.693848 
	C748.069031,325.456909 736.790588,325.259125 725.370300,324.121582 
	C723.617371,319.722443 721.598694,314.656372 719.642273,309.746674 
	C731.255005,298.871674 739.483398,286.156281 740.076050,269.435822 
	C740.133118,267.826263 740.792114,265.455383 741.947937,264.793457 
	C749.931396,260.221710 755.959473,253.610306 762.239990,246.369202 
	C763.502258,245.352905 764.308167,244.697723 765.114075,244.042557 
z"/>
<path fill="#FFFFFF" opacity="1.000000" stroke="none" 
	d="
M1.000000,277.468658 
	C8.163690,277.000000 15.335685,277.205322 22.487677,276.916107 
	C26.242264,276.764282 27.954725,277.965240 29.102142,281.637512 
	C33.544769,295.856140 38.356724,309.959442 43.057949,324.096771 
	C43.182442,324.471161 43.613697,324.743530 44.314964,325.522034 
	C49.759365,309.198456 55.055351,293.319855 60.435291,277.189545 
	C68.600822,277.189545 77.035904,277.189545 85.735985,277.189545 
	C85.735985,301.652649 85.735985,326.041992 85.735985,350.716125 
	C79.379448,350.716125 72.977180,350.716125 66.234055,350.716125 
	C66.234055,338.036072 66.234055,325.283936 66.234055,312.531799 
	C65.905815,312.456146 65.577576,312.380493 65.249336,312.304840 
	C61.263023,323.976654 57.094131,335.591370 53.414516,347.359100 
	C52.454540,350.429169 51.141190,351.054962 48.266163,351.062103 
	C35.861614,351.093018 35.937325,351.151123 31.959272,339.159454 
	C28.999781,330.238159 25.812422,321.392456 22.000000,312.558167 
	C22.000000,318.865204 22.000000,325.172272 22.000000,331.479340 
	C22.000000,337.788086 22.000000,344.096802 22.000000,351.268097 
	C15.115299,350.940796 8.440639,350.623474 1.382989,350.653076 
	C1.000000,326.645782 1.000000,302.291534 1.000000,277.468658 
z"/>
<path fill="#FFFFFF" opacity="1.000000" stroke="none" 
	d="
M0.999999,194.468658 
	C1.666425,193.521790 2.717600,193.180176 2.942981,192.545380 
	C8.502224,176.887329 23.153004,168.604431 39.053944,167.946899 
	C50.181980,167.486755 60.275494,169.903534 69.040283,177.003235 
	C74.695732,181.584305 77.212242,187.884262 78.989197,194.999512 
	C72.609688,194.999512 66.460663,195.059708 60.315704,194.928818 
	C59.480385,194.911011 58.416130,194.118134 57.878944,193.378372 
	C51.215595,184.202408 39.494263,184.747849 32.312752,187.901703 
	C23.161034,191.920792 20.037148,204.171387 21.621206,212.495209 
	C24.220860,226.155701 41.182652,234.299988 54.311047,224.820023 
	C56.570717,223.188324 57.881336,220.242325 60.323742,216.976196 
	C52.653057,216.976196 46.546074,216.976196 40.224342,216.976196 
	C40.224342,212.590149 40.224342,208.520386 40.224342,204.223923 
	C53.407932,204.223923 66.474709,204.223923 79.771194,204.223923 
	C79.771194,217.400772 79.771194,230.467148 79.771194,243.767303 
	C75.598679,243.767303 71.519615,243.767303 67.098061,243.767303 
	C67.098061,241.305008 67.098061,238.911728 67.098061,235.607452 
	C59.208431,243.495148 50.199600,247.240021 40.020710,246.895477 
	C23.917900,246.350403 8.220366,238.225449 2.923743,220.815674 
	C2.757317,220.268631 2.079000,219.877319 1.319658,219.706696 
	C1.000000,211.645767 1.000000,203.291534 0.999999,194.468658 
z"/>
<path fill="#FFFFFF" opacity="1.000000" stroke="none" 
	d="
M1.000000,385.468658 
	C16.001902,385.000000 31.003847,384.977356 46.005688,385.008240 
	C55.456799,385.027710 63.902992,387.814545 68.917152,396.240143 
	C74.708336,405.971436 74.574623,416.290161 68.882797,426.135010 
	C67.126122,429.173492 64.198547,431.535004 61.737953,434.283722 
	C65.897217,441.746429 70.494522,449.995087 75.510017,458.994049 
	C68.770256,458.994049 62.674778,459.318542 56.655914,458.782593 
	C54.999855,458.635132 53.147266,456.157257 52.120766,454.334290 
	C49.130634,449.024139 46.512909,443.504303 43.760666,438.089325 
	C36.567719,438.089325 29.591217,438.089325 22.214621,438.089325 
	C22.214621,444.904388 22.214621,451.651154 22.214621,459.274719 
	C15.123310,458.938812 8.444644,458.622467 1.382989,458.653076 
	C1.000000,434.645782 1.000000,410.291534 1.000000,385.468658 
M22.000000,413.475342 
	C22.000000,416.236267 22.000000,418.997162 22.000000,421.999329 
	C29.296305,421.999329 36.072998,422.179596 42.834991,421.941833 
	C48.170956,421.754211 51.773399,418.054871 51.999939,413.190582 
	C52.260540,407.594910 49.310711,402.397766 44.843719,402.137177 
	C37.312473,401.697815 29.736988,402.016693 22.000000,402.016693 
	C22.000000,405.894379 22.000000,409.191925 22.000000,413.475342 
z"/>
<path fill="#FFFFFF" opacity="1.000000" stroke="none" 
	d="
M274.468628,461.000000 
	C273.353027,460.327881 272.828156,459.319214 272.040985,459.033661 
	C258.709595,454.198395 249.406738,445.723328 246.700104,431.240906 
	C242.373718,408.091583 252.672958,386.883698 278.339600,382.881592 
	C292.911407,380.609436 305.844849,383.268860 316.635223,393.317200 
	C323.346985,399.567413 326.287659,407.760620 327.174561,417.089783 
	C328.167267,427.532379 325.978668,436.681488 320.286499,445.376678 
	C315.546692,452.617035 308.535065,456.202515 300.827515,459.007141 
	C299.972626,459.318237 299.214264,459.894623 298.705566,460.674011 
	C290.979095,461.000000 282.958191,461.000000 274.468628,461.000000 
M274.468536,439.043823 
	C279.583405,443.770630 285.893646,444.095306 291.915283,442.410065 
	C301.100494,439.839447 308.087311,433.601257 307.026733,418.558441 
	C306.445068,410.307953 301.163818,403.785400 294.301666,401.223145 
	C286.192749,398.195343 274.634308,401.072021 270.681824,406.909637 
	C263.748383,417.149994 263.801422,429.667847 274.468536,439.043823 
z"/>
<path fill="#FFFFFF" opacity="1.000000" stroke="none" 
	d="
M107.468658,461.000000 
	C106.519127,460.333801 106.164139,459.251831 105.538849,459.062469 
	C91.298767,454.750153 82.161674,445.379333 79.479111,430.834167 
	C75.721535,410.460114 82.728104,389.519897 107.884918,383.242401 
	C122.111351,379.692444 136.099899,381.999359 147.883163,391.524750 
	C154.478104,396.855927 158.551514,404.330994 159.686935,412.657532 
	C160.853622,421.213226 160.923599,429.964172 157.302307,438.236664 
	C152.986069,448.096619 146.046936,455.006989 135.556992,458.130859 
	C134.085449,458.569092 132.788742,459.594452 131.705566,460.674011 
	C123.979103,461.000000 115.958199,461.000000 107.468658,461.000000 
M126.167435,401.000580 
	C119.957466,398.928650 114.211075,400.210419 108.462837,402.984741 
	C100.900925,406.634491 96.445267,420.498627 100.648315,430.432556 
	C103.706459,437.660492 108.776443,441.728973 115.883789,442.840149 
	C123.813385,444.079834 131.173630,442.073364 135.996262,434.847137 
	C144.269684,422.450226 140.400940,408.075287 126.167435,401.000580 
z"/>
<path fill="#FFFFFF" opacity="1.000000" stroke="none" 
	d="
M544.468628,461.000000 
	C542.782654,460.015015 541.701538,458.470947 540.325928,458.135895 
	C531.560120,456.000885 526.507507,450.319183 524.407593,441.849457 
	C523.827209,439.508606 524.049194,436.968781 523.872131,434.002075 
	C529.494141,434.002075 534.784363,433.841339 540.048645,434.139069 
	C541.088989,434.197937 541.996948,436.055084 543.023010,437.022461 
	C545.158142,439.035492 547.007385,441.800873 549.552856,442.841614 
	C555.975220,445.467316 562.853333,445.600525 569.263428,442.838440 
	C571.592773,441.834717 574.272827,439.168945 574.713806,436.863831 
	C575.311279,433.740723 572.846924,431.345459 569.253418,430.667328 
	C561.505615,429.205231 553.765747,427.680481 546.070251,425.967560 
	C537.954651,424.161102 530.240479,421.263977 527.086304,412.679016 
	C522.907227,401.304779 529.339172,388.259552 541.271057,384.842102 
	C553.351746,381.382019 565.197998,380.919312 577.191711,384.648712 
	C587.408447,387.825562 593.813477,396.075897 592.875916,407.993835 
	C587.498474,407.993835 582.047241,408.134735 576.616028,407.868408 
	C575.597412,407.818451 574.391602,406.299255 573.729980,405.186005 
	C571.033020,400.648438 562.970947,396.940369 557.789978,398.033081 
	C556.215210,398.365234 554.637085,398.681305 553.059631,399.000397 
	C549.481812,399.724182 546.616821,401.262665 546.005249,405.292450 
	C545.353577,409.586182 548.160583,411.211365 551.572449,411.958771 
	C559.746765,413.749512 568.015991,415.125275 576.153442,417.061188 
	C583.781555,418.875916 591.366943,421.372681 593.966675,429.964081 
	C597.750793,442.469604 592.916931,453.002838 580.501099,457.832886 
	C578.454956,458.628906 576.440002,459.504974 574.705322,460.671997 
	C564.979126,461.000000 554.958191,461.000000 544.468628,461.000000 
z"/>
<path fill="#FFFFFF" opacity="1.000000" stroke="none" 
	d="
M469.468628,461.000000 
	C468.683563,460.345154 468.494843,459.229889 468.032379,459.101562 
	C447.048706,453.279907 438.861359,436.718933 440.179993,418.316406 
	C441.479736,400.176758 452.362915,386.244415 472.663177,382.950958 
	C487.361328,380.566345 500.447052,382.977966 510.944275,394.431396 
	C514.472961,398.281555 517.992493,407.173126 517.867188,412.998413 
	C512.253052,412.998413 506.609070,413.196442 500.998627,412.850311 
	C499.699585,412.770203 497.798370,411.048004 497.395416,409.712860 
	C494.948730,401.606506 484.161255,398.436096 476.991272,400.216187 
	C467.645905,402.536316 461.528076,408.401337 461.083282,418.505554 
	C460.473267,432.364594 464.613739,438.649658 475.701630,442.210236 
	C484.529572,445.045074 492.817932,441.466003 497.400421,433.321381 
	C498.281342,431.755646 500.683411,430.308716 502.501556,430.149109 
	C507.447815,429.715027 512.457214,430.000031 517.973816,430.000031 
	C517.853271,436.866608 515.504944,442.776886 511.562012,447.794769 
	C506.965576,453.644287 501.078644,457.989624 493.407104,459.262787 
	C493.025299,459.326141 492.739227,459.966278 492.704285,460.668945 
	C485.312408,461.000000 477.624847,461.000000 469.468628,461.000000 
z"/>
<path fill="#FFFFFF" opacity="1.000000" stroke="none" 
	d="
M235.812027,395.467621 
	C239.973114,404.290741 238.390106,412.838776 228.200073,419.456268 
	C240.221985,427.088684 243.120804,436.355347 237.087753,447.505341 
	C233.048676,454.970123 225.833115,457.522339 218.410049,457.803680 
	C201.857727,458.430969 185.265289,457.999603 168.343506,457.999603 
	C168.343506,434.493805 168.343506,410.088715 168.343506,385.281006 
	C169.335785,385.201508 170.593475,385.014862 171.851440,385.013092 
	C186.516785,384.992615 201.191345,384.690796 215.843887,385.124481 
	C223.706848,385.357239 231.297897,387.325104 235.812027,395.467621 
M192.619553,427.000000 
	C191.179520,427.000000 189.739487,427.000000 188.234070,427.000000 
	C188.234070,432.219177 188.234070,436.949432 188.234070,442.000000 
	C195.743820,442.000000 203.024139,442.028351 210.304092,441.990662 
	C215.764465,441.962402 219.035202,439.057465 219.000000,434.377686 
	C218.965302,429.765808 215.678345,427.033051 210.059448,427.005798 
	C204.572968,426.979218 199.086227,427.000000 192.619553,427.000000 
M188.000000,408.460724 
	C188.000000,410.222351 188.000000,411.983978 188.000000,413.999268 
	C195.965027,413.999268 203.417419,414.276917 210.833282,413.876892 
	C214.307693,413.689484 217.816574,412.288879 217.992310,407.708740 
	C218.142242,403.800781 215.550873,401.362061 212.357544,401.167603 
	C204.326965,400.678680 196.246704,401.005890 188.000000,401.005890 
	C188.000000,403.557465 188.000000,405.528717 188.000000,408.460724 
z"/>
<path fill="#FFFFFF" opacity="1.000000" stroke="none" 
	d="
M405.000000,312.000000 
	C405.000000,300.199219 405.000000,288.898438 405.000000,277.000000 
	C416.266205,277.000000 427.354218,276.779785 438.427612,277.086700 
	C444.580841,277.257263 450.738739,278.107849 456.843842,278.999298 
	C472.979065,281.355194 479.376221,300.050201 474.269836,313.038239 
	C472.298981,318.051117 468.536102,322.359406 465.059326,327.821930 
	C466.427216,330.311859 468.612091,334.336884 470.842957,338.336243 
	C473.098419,342.379761 475.399414,346.397888 478.004517,350.999542 
	C471.499359,350.999542 465.445679,351.211548 459.426971,350.846771 
	C457.967438,350.758301 456.129242,349.047302 455.314209,347.603180 
	C452.314056,342.287476 449.670532,336.770477 446.825378,331.196960 
	C439.686401,331.196960 432.608185,331.196960 425.135864,331.196960 
	C425.135864,337.654510 425.135864,344.063568 425.135864,350.731750 
	C418.348969,350.731750 411.948822,350.731750 405.000000,350.731750 
	C405.000000,338.006012 405.000000,325.253021 405.000000,312.000000 
M451.359528,296.906464 
	C450.075287,296.273193 448.803284,295.122772 447.504791,295.092010 
	C440.076996,294.916199 432.642914,295.006592 425.286499,295.006592 
	C425.286499,301.976898 425.286499,308.382324 425.286499,314.999542 
	C431.880920,314.999542 438.211884,315.314087 444.492065,314.885223 
	C448.456543,314.614502 452.732025,313.733582 454.323364,309.124664 
	C455.800507,304.846344 455.602448,300.760132 451.359528,296.906464 
z"/>
<path fill="#FFFFFF" opacity="1.000000" stroke="none" 
	d="
M143.445435,172.160614 
	C153.936157,176.310974 159.135635,184.226547 159.840027,194.601318 
	C160.519058,204.602493 157.490204,213.530869 148.192352,219.307816 
	C152.618500,227.213745 157.031387,235.095993 162.013672,243.995285 
	C154.858719,243.995285 148.804962,244.225662 142.794540,243.817474 
	C141.455338,243.726532 139.943649,241.575531 139.073044,240.052032 
	C136.525284,235.593536 134.211899,230.997711 131.905731,226.405960 
	C130.705566,224.016388 129.264969,222.732452 126.244041,222.907211 
	C120.644630,223.231171 115.013100,223.000000 109.009995,223.000000 
	C109.009995,230.117813 109.009995,236.861465 109.009995,243.795258 
	C102.216202,243.795258 95.815636,243.795258 89.207245,243.795258 
	C89.207245,219.233627 89.207245,194.845703 89.207245,169.071686 
	C107.284256,170.061279 125.171677,171.040482 143.445435,172.160614 
M110.709084,207.996063 
	C117.913597,207.662842 125.154037,207.660553 132.310410,206.883759 
	C137.348083,206.336975 139.302017,202.794189 138.999908,196.763229 
	C138.771072,192.194855 135.482712,188.221878 131.123093,188.071213 
	C123.874352,187.820679 116.610634,188.002945 108.658096,188.002945 
	C109.036415,194.951157 109.390121,201.447342 110.709084,207.996063 
z"/>
<path fill="#FFFFFF" opacity="1.000000" stroke="none" 
	d="
M359.088745,307.000000 
	C371.211182,307.000000 382.845184,307.000000 394.338348,307.000000 
	C394.646027,307.534546 394.930908,307.801544 394.939484,308.077179 
	C395.373260,321.999908 395.370728,322.000000 381.382233,322.000000 
	C372.084564,322.000000 362.786896,322.000000 353.246155,322.000000 
	C353.246155,326.365204 353.246155,330.436432 353.246155,335.000000 
	C360.399445,335.000000 367.508331,335.000000 374.617218,335.000000 
	C381.582458,335.000000 388.547699,335.000000 395.754395,335.000000 
	C395.754395,340.367523 395.754395,345.438812 395.754395,350.756714 
	C374.628937,350.756714 353.562042,350.756714 332.247131,350.756714 
	C332.247131,326.303070 332.247131,301.903961 332.247131,277.252014 
	C353.354401,277.252014 374.421082,277.252014 395.744385,277.252014 
	C395.744385,282.680115 395.744385,288.084686 395.744385,293.889313 
	C381.649811,293.889313 367.576599,293.889313 353.254272,293.889313 
	C353.254272,298.348663 353.254272,302.419678 353.254272,307.000000 
	C355.050964,307.000000 356.825653,307.000000 359.088745,307.000000 
z"/>
<path fill="#FFFFFF" opacity="1.000000" stroke="none" 
	d="
M183.542542,243.999481 
	C177.131668,243.999954 171.176422,243.999954 164.740128,243.999954 
	C169.891022,230.533859 174.837143,217.550858 179.823608,204.583344 
	C183.846481,194.121735 188.164886,183.763580 191.801407,173.170456 
	C192.759201,170.380432 193.908539,169.962570 196.256195,169.980347 
	C203.418060,170.034592 210.584320,169.880051 217.739777,170.101028 
	C219.176025,170.145370 221.428772,171.156570 221.860764,172.278229 
	C230.995453,195.996140 239.922958,219.793854 249.049911,243.997406 
	C242.481476,243.997406 236.134003,244.481049 229.946640,243.698532 
	C228.123856,243.468018 225.843750,239.832779 225.378189,237.444946 
	C224.566330,233.280853 222.366348,232.866089 218.892685,232.941559 
	C210.568375,233.122391 202.232849,233.160278 193.911606,232.919083 
	C190.700134,232.826004 189.496933,233.942902 188.360641,236.889404 
	C187.404236,239.369400 188.615540,243.654343 183.542542,243.999481 
M215.033966,209.269302 
	C213.024536,203.380936 211.051559,197.479553 208.955551,191.622162 
	C208.717163,190.955948 207.816055,190.154541 207.171585,190.107346 
	C206.483109,190.056900 205.301025,190.664368 205.077576,191.262329 
	C201.933197,199.677185 198.915771,208.139481 195.782242,216.826645 
	C203.577881,216.826645 210.673157,216.826645 218.217514,216.826645 
	C217.217270,214.343750 216.335709,212.155487 215.033966,209.269302 
z"/>
<path fill="#FFFFFF" opacity="1.000000" stroke="none" 
	d="
M163.749512,317.363586 
	C167.983734,328.631287 172.002274,339.559326 176.208893,350.998901 
	C169.527100,350.998901 163.234146,351.284485 157.004303,350.784180 
	C155.571091,350.669067 153.402405,347.962982 153.212662,346.265869 
	C152.586105,340.662109 149.634445,339.611847 144.589249,339.890076 
	C136.958252,340.311005 129.280121,340.189789 121.635712,339.916168 
	C118.063354,339.788269 116.224411,340.686157 115.760185,344.455475 
	C115.495682,346.603119 114.300217,348.636139 113.467628,350.872070 
	C106.615440,350.872070 99.642975,350.872070 92.234024,350.872070 
	C96.025902,340.826782 99.752487,330.873901 103.538780,320.943726 
	C108.666130,307.496490 113.955460,294.109161 118.896889,280.594330 
	C119.912041,277.817902 121.036591,276.819275 123.995102,276.925323 
	C130.642380,277.163513 137.314667,277.225006 143.955734,276.911987 
	C147.684235,276.736237 148.934341,278.394287 150.091919,281.597687 
	C154.383820,293.474670 159.024292,305.225616 163.749512,317.363586 
M128.999908,307.506195 
	C127.063080,312.930878 125.126251,318.355591 123.175156,323.820221 
	C130.548447,323.820221 137.663864,323.820221 145.154404,323.820221 
	C142.239502,315.405884 139.459061,307.253693 136.544022,299.149902 
	C136.235168,298.291260 135.095245,297.115967 134.415436,297.163086 
	C133.575546,297.221313 132.497177,298.253815 132.078629,299.131012 
	C130.910477,301.579071 130.029663,304.164246 128.999908,307.506195 
z"/>
<path fill="#FFFFFF" opacity="1.000000" stroke="none" 
	d="
M202.000000,277.000000 
	C214.161133,277.000000 225.823929,277.109741 237.482391,276.933411 
	C240.995377,276.880310 242.253067,278.032227 242.057205,281.534729 
	C241.817108,285.828461 241.999969,290.145813 241.999969,294.845551 
	C233.031143,294.845551 224.288025,294.845551 215.159668,294.845551 
	C215.159668,313.636780 215.159668,332.039337 215.159668,350.719330 
	C208.037827,350.719330 201.300110,350.719330 194.167572,350.719330 
	C194.167572,332.371246 194.167572,313.968689 194.167572,295.172485 
	C185.048691,295.172485 176.306152,295.172485 167.284637,295.172485 
	C167.284637,289.044739 167.284637,283.307404 167.284637,277.000000 
	C178.644943,277.000000 190.072479,277.000000 202.000000,277.000000 
z"/>
<path fill="#FFFFFF" opacity="1.000000" stroke="none" 
	d="
M318.890503,295.000000 
	C311.433838,295.000000 304.467346,295.000000 297.111511,295.000000 
	C297.111511,313.685181 297.111511,332.088684 297.111511,350.744110 
	C290.319031,350.744110 283.915405,350.744110 277.115417,350.744110 
	C277.115417,332.318909 277.115417,313.915375 277.115417,295.118500 
	C267.658203,295.118500 258.583221,295.118500 249.000885,295.118500 
	C249.000885,289.964874 248.756638,285.169830 249.167038,280.431488 
	C249.273956,279.196991 251.413727,277.156036 252.633606,277.145874 
	C276.256317,276.949677 299.881073,277.000458 323.752075,277.000458 
	C323.752075,283.029541 323.752075,288.766815 323.752075,295.000000 
	C322.264587,295.000000 320.822632,295.000000 318.890503,295.000000 
z"/>
<path fill="#FFFFFF" opacity="1.000000" stroke="none" 
	d="
M264.994446,222.615814 
	C256.266083,207.557388 247.535080,192.942505 238.826691,178.314163 
	C237.381607,175.886688 236.035049,173.400574 234.112579,170.004684 
	C241.500900,170.004684 247.884399,169.913696 254.259567,170.103409 
	C255.208633,170.131653 256.416565,171.297913 256.999878,172.247742 
	C262.385834,181.017822 267.659821,189.856613 272.969238,198.673721 
	C273.455536,199.481323 273.961487,200.277069 275.054047,202.039093 
	C278.282196,196.541550 281.160706,191.661926 284.016754,186.769196 
	C286.691559,182.186966 289.218018,177.510910 292.080872,173.050156 
	C292.927704,171.730621 294.653839,170.207504 296.045410,170.137558 
	C302.282318,169.824036 308.543915,170.001083 315.645294,170.001083 
	C310.678345,178.446259 306.201813,186.184784 301.600098,193.848129 
	C296.388672,202.526703 291.017181,211.109436 285.847870,219.812576 
	C285.164764,220.962692 285.053528,222.574509 285.035919,223.977020 
	C284.954559,230.451340 285.000000,236.927246 285.000000,243.700699 
	C278.413422,243.700699 272.009705,243.700699 264.999359,243.700699 
	C264.999359,236.902573 264.999359,229.978729 264.994446,222.615814 
z"/>
<path fill="#FFFFFF" opacity="1.000000" stroke="none" 
	d="
M390.997314,402.000000 
	C386.190063,402.000000 381.880127,402.000000 377.177246,402.000000 
	C377.177246,420.951385 377.177246,439.689209 377.177246,458.712036 
	C370.385620,458.712036 363.980133,458.712036 357.176697,458.712036 
	C357.176697,440.048218 357.176697,421.310333 357.176697,402.177307 
	C347.720642,402.177307 338.643921,402.177307 329.286438,402.177307 
	C329.286438,396.381317 329.286438,390.976593 329.286438,385.283875 
	C353.955719,385.283875 378.689270,385.283875 403.711914,385.283875 
	C403.711914,390.615387 403.711914,396.020172 403.711914,402.000000 
	C399.699127,402.000000 395.596893,402.000000 390.997314,402.000000 
z"/>
<path fill="#FFFFFF" opacity="1.000000" stroke="none" 
	d="
M416.135712,385.000000 
	C421.920013,385.000000 427.219147,385.000000 432.756378,385.000000 
	C432.756378,409.704681 432.756378,434.104462 432.756378,458.999054 
	C426.939484,458.999054 421.150757,459.203278 415.399078,458.832916 
	C414.196167,458.755493 412.155731,456.567108 412.144897,455.336975 
	C411.947113,432.845886 412.066925,410.352173 411.925476,387.860229 
	C411.905212,384.635834 413.601196,384.890503 416.135712,385.000000 
z"/>
<path fill="#FFA900" opacity="1.000000" stroke="none" 
	d="
M701.412720,375.905701 
	C702.261230,373.113312 703.941162,373.345764 705.921387,375.489563 
	C704.607849,375.881500 703.216431,375.929840 701.412720,375.905701 
z"/>
<path fill="#000000" opacity="1.000000" stroke="none" 
	d="
M702.970154,213.994797 
	C686.074097,204.932251 668.465515,198.917206 649.922180,196.097351 
	C632.486023,193.445892 614.919006,191.655136 597.700134,189.521683 
	C598.649719,185.414474 599.669617,180.184998 601.168762,175.096725 
	C601.541870,173.830490 603.339783,172.351471 604.692078,172.101257 
	C624.763611,168.387726 643.373901,161.694122 659.392029,148.363235 
	C666.238403,142.665421 671.416260,135.940750 675.676514,128.440445 
	C677.842346,124.627480 680.924438,125.822281 683.433899,126.137611 
	C694.245056,127.496056 705.114136,128.811569 715.732544,131.174423 
	C727.811951,133.862366 738.998413,139.078476 749.320190,146.032089 
	C752.232544,147.994049 753.564331,150.497131 752.995972,153.983276 
	C749.628235,174.641937 741.047302,192.728668 725.974792,207.395554 
	C721.571594,211.680283 716.358154,215.132477 711.515381,218.966873 
	C708.631226,217.232864 705.987183,215.643188 702.970154,213.994797 
z"/>
<path fill="#000000" opacity="1.000000" stroke="none" 
	d="
M432.006439,144.073166 
	C429.745575,137.621155 427.881500,131.419464 425.089050,125.668556 
	C423.409973,122.210548 424.473785,120.262024 426.961823,118.636452 
	C431.573181,115.623558 436.389435,112.924240 440.773438,110.301834 
	C444.610382,120.141670 447.500488,130.074875 452.201843,139.060425 
	C460.757019,155.411713 472.974640,168.364197 491.934265,172.309296 
	C502.719330,174.553452 513.485596,173.616684 523.173645,167.349960 
	C524.079163,166.764221 525.352234,165.911880 526.167358,166.153336 
	C532.654175,168.074738 539.071472,170.230698 544.718323,172.058426 
	C544.131958,179.044861 543.453674,185.782379 543.056763,192.536438 
	C542.904358,195.130646 542.586243,196.405685 539.439575,197.171951 
	C525.361633,200.600220 511.829681,205.570129 499.878876,214.046478 
	C492.587280,219.218231 486.075287,225.469101 483.635529,234.182938 
	C481.849762,240.560730 477.808899,240.580673 473.247559,239.923401 
	C457.384460,237.637619 442.170990,233.360275 428.834503,223.971268 
	C416.676422,215.411865 408.367310,204.055130 403.522125,189.174255 
	C414.978119,188.514954 422.238434,181.618866 428.003815,173.271576 
	C434.005951,164.581467 434.166534,154.591980 432.006439,144.073166 
z"/>
<path fill="#000000" opacity="1.000000" stroke="none" 
	d="
M641.839478,250.993805 
	C648.318176,250.327438 654.327881,249.593552 660.352661,249.017166 
	C676.702515,247.452988 692.122375,242.613007 706.809448,235.480652 
	C710.104126,233.880722 711.839905,234.309601 714.397583,236.732590 
	C720.111572,242.145660 724.449890,248.310226 726.924988,255.764755 
	C727.690979,258.071716 727.677612,259.872101 724.772705,261.111298 
	C714.938721,265.306305 705.285400,269.926941 695.427429,274.061676 
	C693.924988,274.691864 691.244568,274.231171 689.890625,273.224121 
	C679.778320,265.702545 668.591248,260.298706 656.130188,259.192627 
	C638.723328,257.647644 621.485046,270.451202 619.087463,288.441864 
	C618.703125,291.326202 617.587585,291.988037 614.991638,292.041168 
	C603.400757,292.278412 591.790894,293.282593 580.228821,292.867615 
	C558.171936,292.075958 536.282104,289.397919 516.053711,279.826691 
	C506.139709,275.135773 496.912415,269.005066 493.727539,257.285522 
	C493.517242,256.511566 493.149628,255.768539 493.031738,254.984573 
	C492.910217,254.176498 493.004761,253.335922 493.004761,253.073898 
	C501.793304,251.710052 510.330322,250.431747 518.851074,249.052872 
	C534.819397,246.468796 549.174316,239.728333 562.829895,231.432831 
	C565.170349,230.011063 566.175415,230.192703 568.313660,231.591553 
	C583.661438,241.632248 600.700500,246.984039 618.835388,248.978516 
	C626.332703,249.803070 633.862366,250.333771 641.839478,250.993805 
z"/>
<path fill="#000000" opacity="1.000000" stroke="none" 
	d="
M574.009827,100.060730 
	C577.726624,109.935860 581.171631,119.522652 585.148682,128.883377 
	C586.639038,132.391205 585.010376,133.234329 582.622559,134.922684 
	C574.646851,140.562180 565.378113,145.325073 559.490784,152.721146 
	C552.373535,161.662308 545.389648,160.558975 536.899963,157.448990 
	C535.992432,157.116547 535.061462,156.848022 534.065186,156.525146 
	C540.535767,142.352859 539.054260,128.495193 531.620178,115.341003 
	C524.097046,102.029076 511.406097,95.638107 496.771973,92.100388 
	C501.349152,80.028267 509.076630,71.214340 518.851562,64.050705 
	C521.852234,61.851662 525.379944,60.307468 528.152527,57.877228 
	C531.979797,54.522469 534.876160,55.227142 538.721558,58.065754 
	C551.861206,67.765091 562.448608,79.600090 570.398560,93.839539 
	C571.508850,95.828156 572.762329,97.736855 574.009827,100.060730 
z"/>
<path fill="#000000" opacity="1.000000" stroke="none" 
	d="
M671.995117,95.174591 
	C671.321533,100.974937 670.810913,106.350304 669.816223,111.634544 
	C669.632385,112.611572 667.512634,113.865929 666.253662,113.903839 
	C642.580383,114.616669 619.688782,119.118042 598.848389,127.368423 
	C592.217407,112.982651 586.357971,98.477531 578.990540,84.783737 
	C571.387878,70.652832 560.315308,59.120884 546.708374,49.008728 
	C568.666382,41.040970 590.113708,38.674866 611.461670,47.070938 
	C605.978027,52.539955 599.882385,57.308399 595.441833,63.302856 
	C583.824829,78.985161 593.745117,100.737991 612.098938,105.032326 
	C621.860168,107.316231 631.070190,106.255058 637.653198,98.429916 
	C640.968750,94.488731 643.003723,88.748138 643.785950,83.545815 
	C645.499084,72.151360 641.883545,61.609577 635.463379,51.407913 
	C641.521240,50.199650 646.975464,48.885590 652.507019,48.163330 
	C653.937195,47.976593 656.143555,49.250401 657.087708,50.524479 
	C665.856873,62.356903 669.803772,75.931145 671.029602,90.440666 
	C671.151489,91.883301 671.661499,93.293137 671.995117,95.174591 
z"/>
<path fill="#000000" opacity="1.000000" stroke="none" 
	d="
M679.317505,69.724869 
	C676.323303,62.316193 673.568481,55.246498 670.846924,48.262177 
	C720.057190,47.743763 754.183167,84.014687 753.784912,133.320663 
	C742.388855,128.979263 730.895630,123.613297 718.839966,120.284821 
	C706.687622,116.929642 693.976685,115.597755 681.720093,113.416679 
	C684.167297,98.978600 683.693848,84.441338 679.317505,69.724869 
z"/>
<path fill="#000000" opacity="1.000000" stroke="none" 
	d="
M614.313721,236.968964 
	C604.319580,233.956512 594.689941,231.194748 585.260193,227.866516 
	C581.580322,226.567688 578.350281,223.994507 575.215210,222.175751 
	C580.342285,216.002426 585.006226,210.272186 589.837402,204.686523 
	C590.610718,203.792480 592.119629,203.099518 593.309814,203.065796 
	C614.726074,202.459015 635.955872,204.180023 656.621033,209.979034 
	C668.876099,213.418060 680.846985,217.884079 692.891846,222.044266 
	C694.987793,222.768173 696.815552,224.268387 699.013855,225.554321 
	C686.577454,231.604843 673.764709,235.438477 660.318909,236.953156 
	C652.006653,237.889526 643.642029,238.799698 635.295227,238.854141 
	C628.453918,238.898743 621.604126,237.661926 614.313721,236.968964 
z"/>
<path fill="#000000" opacity="1.000000" stroke="none" 
	d="
M396.114105,76.042534 
	C399.202820,73.401314 402.291504,70.760086 405.961700,68.005318 
	C406.733704,67.607407 406.924164,67.323044 407.114655,67.038673 
	C423.135986,55.580948 440.662720,47.584064 460.705048,44.144493 
	C461.445221,44.411873 461.584717,44.524273 461.724243,44.636677 
	C448.489044,59.737755 440.635956,76.974678 440.889526,96.493942 
	C432.114777,101.734543 423.807098,106.696220 415.654572,111.565239 
	C404.371124,106.081177 392.471893,100.297798 380.164917,94.316261 
	C382.670868,91.238091 385.726349,87.484917 389.220398,83.289398 
	C391.810699,80.578873 393.962402,78.310699 396.114105,76.042534 
z"/>
<path fill="#000000" opacity="1.000000" stroke="none" 
	d="
M572.998657,12.000116 
	C599.529724,13.461332 624.459534,18.174667 645.457397,36.742546 
	C638.584290,38.617989 632.473083,40.430618 626.270203,41.839798 
	C625.196472,42.083748 623.667603,40.720707 622.462463,39.927498 
	C612.663879,33.478199 601.592834,30.760715 590.180969,30.124565 
	C571.990112,29.110521 554.338623,32.250141 537.677551,39.801903 
	C532.352356,42.215618 528.817322,38.401863 524.534607,37.154282 
	C516.628357,34.851109 508.758484,32.423023 500.934296,30.065308 
	C522.816162,17.791492 547.216003,13.166500 572.998657,12.000116 
z"/>
<path fill="#000000" opacity="1.000000" stroke="none" 
	d="
M727.261414,222.242432 
	C736.687134,215.081589 743.986633,206.519684 750.039795,196.817917 
	C756.462219,186.524261 760.860046,175.453568 763.189575,163.548721 
	C763.271667,163.129120 763.789429,162.794769 764.105103,162.419617 
	C771.209778,168.903488 776.226257,190.653687 770.303040,211.631271 
	C765.262207,229.484024 753.244995,241.274750 739.620300,251.654785 
	C734.061401,243.296967 728.480042,234.905396 722.633606,226.115326 
	C723.558350,225.349197 725.279358,223.923279 727.261414,222.242432 
z"/>
<path fill="#000000" opacity="1.000000" stroke="none" 
	d="
M485.165833,88.551315 
	C484.843750,89.216911 484.711670,89.725800 484.538239,89.740311 
	C474.162170,90.608185 463.782623,91.435341 453.245605,92.278984 
	C451.089172,82.442039 456.880035,74.441689 461.073059,66.160126 
	C465.959839,56.508469 473.444916,48.891994 482.079712,42.450176 
	C483.159821,41.644367 484.801666,40.894741 486.028198,41.090469 
	C497.327972,42.893650 508.593567,44.910915 519.957275,47.734001 
	C504.476440,58.388306 492.084686,70.849182 485.165833,88.551315 
z"/>
<path fill="#000000" opacity="1.000000" stroke="none" 
	d="
M509.689087,160.114105 
	C496.795380,164.198517 486.437561,159.540634 477.235565,151.641830 
	C463.280457,139.662979 456.560272,123.759605 453.117432,104.967178 
	C462.746368,103.690659 472.009766,102.462601 480.936829,101.279129 
	C482.415649,109.349335 483.241699,116.464577 485.075439,123.309860 
	C488.655457,136.673874 495.696289,147.914200 507.194916,156.040039 
	C508.528900,156.982727 509.776489,158.047623 511.064148,159.055878 
	C510.731445,159.379913 510.398743,159.703934 509.689087,160.114105 
z"/>
<path fill="#000000" opacity="1.000000" stroke="none" 
	d="
M374.275970,107.033478 
	C389.680115,110.611336 400.024689,115.378487 405.220276,120.844650 
	C400.791687,129.246689 395.298492,137.098419 392.438080,145.814194 
	C389.545654,154.627304 389.260529,164.296112 387.778595,173.946091 
	C376.303833,168.117050 371.235260,157.136566 368.259552,145.220871 
	C365.025299,132.269836 367.536865,119.649689 373.124176,107.632507 
	C373.241333,107.380539 373.613617,107.247200 374.275970,107.033478 
z"/>
<path fill="#000000" opacity="1.000000" stroke="none" 
	d="
M660.362549,314.996948 
	C652.325928,312.340027 644.733215,309.740753 637.194092,306.994049 
	C635.196960,306.266388 633.365051,305.085144 631.457275,304.112213 
	C632.052917,303.353546 632.648499,302.594910 633.244141,301.836273 
	C638.293823,300.898804 643.382080,300.130707 648.385620,298.990692 
	C661.171448,296.077576 673.903625,292.927399 686.704102,290.082642 
	C688.191345,289.752136 690.578857,290.194275 691.514160,291.220947 
	C695.761230,295.883148 699.637573,300.883148 703.631897,305.742889 
	C690.008118,314.775055 675.590698,315.731659 660.362549,314.996948 
z"/>
<path fill="#000000" opacity="1.000000" stroke="none" 
	d="
M613.139160,135.029602 
	C629.426331,130.062759 645.683655,127.224693 662.148865,126.537003 
	C660.906311,130.673874 654.933655,136.996521 648.110657,142.032379 
	C635.605042,151.262451 621.406189,156.367859 606.469299,159.808121 
	C603.736938,160.437454 602.032776,159.786987 601.947632,156.448715 
	C601.839050,152.194748 601.403076,147.944183 600.981567,143.704758 
	C600.668579,140.556458 601.173523,138.422928 604.983765,137.849579 
	C607.645020,137.449127 610.152588,136.027161 613.139160,135.029602 
z"/>
<path fill="#000000" opacity="1.000000" stroke="none" 
	d="
M551.884460,224.018158 
	C533.830139,234.196579 514.808594,239.478134 493.775604,240.218643 
	C497.183350,230.660980 503.769867,224.642349 511.856781,220.829758 
	C522.024048,216.036362 532.716614,212.328842 543.309753,208.505188 
	C544.540588,208.060913 547.132812,209.422577 548.138428,210.699463 
	C550.838562,214.128052 553.020630,217.964706 555.414856,221.649231 
	C554.537170,222.290070 553.392578,223.125763 551.884460,224.018158 
z"/>
<path fill="#000000" opacity="1.000000" stroke="none" 
	d="
M517.271851,115.769196 
	C523.154724,122.288864 526.210144,129.878143 526.702393,138.020782 
	C526.969543,142.439453 524.717163,147.010452 523.577820,151.607117 
	C505.211456,144.743042 493.169983,122.323494 494.431702,103.858002 
	C503.154999,105.575691 510.502899,109.697548 517.271851,115.769196 
z"/>
<path fill="#000000" opacity="1.000000" stroke="none" 
	d="
M603.961426,72.179749 
	C608.444031,64.039375 615.648743,59.732334 623.310120,55.855694 
	C629.045959,62.575584 631.597046,70.372322 632.944092,78.603134 
	C633.819397,83.951599 630.821167,89.378761 626.804810,92.121170 
	C621.815491,95.527893 613.286316,93.953117 609.706482,91.139427 
	C603.870544,86.552391 599.638245,79.364914 603.961426,72.179749 
z"/>
<path fill="#000000" opacity="1.000000" stroke="none" 
	d="
M409.781982,175.053940 
	C406.835175,175.931046 404.271484,176.727921 401.451691,177.604401 
	C399.383392,159.807480 402.931213,144.431656 414.187866,131.017227 
	C424.933716,144.088150 422.828400,165.581009 409.781982,175.053940 
z"/>
<path fill="#000000" opacity="1.000000" stroke="none" 
	d="
M710.167175,363.914490 
	C705.675293,363.658447 701.575684,363.516968 697.533203,362.960602 
	C693.736572,362.438049 689.878723,361.237823 689.122192,356.839539 
	C688.301392,352.067291 690.445496,347.999054 694.651733,345.856171 
	C701.620667,342.305786 708.889160,339.343506 716.248474,336.035858 
	C718.631775,347.100861 718.917175,356.450653 710.167175,363.914490 
z"/>
<path fill="#000000" opacity="1.000000" stroke="none" 
	d="
M588.003357,179.885284 
	C586.648376,183.784546 585.301086,187.260910 584.004639,190.606186 
	C574.311707,191.644928 564.891479,192.654449 555.023804,193.711914 
	C555.023804,190.384277 554.641357,186.867294 555.096802,183.462418 
	C556.365906,173.975250 556.503174,173.994980 566.609985,173.999680 
	C572.630554,174.002472 578.651123,174.000183 584.671692,174.000183 
	C585.978699,174.000183 587.285645,174.000183 589.219238,174.000183 
	C588.746216,176.138931 588.378662,177.800659 588.003357,179.885284 
z"/>
<path fill="#000000" opacity="1.000000" stroke="none" 
	d="
M656.646606,285.709412 
	C647.994202,287.388977 639.712036,288.846558 631.239197,290.337677 
	C632.926270,275.693329 645.450439,269.231049 657.605042,271.489441 
	C664.594910,272.788208 671.200378,276.155579 677.978882,278.591705 
	C677.943237,279.188965 677.907593,279.786224 677.871948,280.383484 
	C670.920227,282.084808 663.968506,283.786102 656.646606,285.709412 
z"/>
<path fill="#000000" opacity="1.000000" stroke="none" 
	d="
M721.292847,276.289307 
	C723.610229,275.145447 725.621216,274.226135 727.804382,273.228058 
	C726.275635,283.655365 720.676331,291.564453 713.483154,299.104675 
	C709.678345,294.093353 706.006653,289.257385 702.556030,284.712616 
	C708.699707,281.979614 714.843079,279.246735 721.292847,276.289307 
z"/>
<path fill="#000000" opacity="1.000000" stroke="none" 
	d="
M568.787292,162.999603 
	C567.959106,162.462616 567.108154,161.538818 567.192017,161.444275 
	C573.299072,154.560760 580.595520,149.288498 589.498596,144.946991 
	C590.118164,150.808609 590.675964,156.085251 591.336121,162.330978 
	C583.567993,162.565689 576.384399,162.782745 568.787292,162.999603 
z"/>
<path fill="#000000" opacity="1.000000" stroke="none" 
	d="
M561.734741,209.228943 
	C560.798035,207.725479 560.119873,206.486313 559.517334,205.385422 
	C564.531677,204.632401 569.450745,203.893677 574.369507,203.155014 
	C574.618774,207.658386 571.745300,211.220306 565.395325,214.065445 
	C564.290222,212.580139 563.141785,211.036667 561.734741,209.228943 
z"/>
<path fill="#FFA900" opacity="1.000000" stroke="none" 
	d="
M395.737976,76.034012 
	C393.962402,78.310699 391.810699,80.578873 389.350891,82.980484 
	C389.191132,79.005623 391.604279,76.916306 395.737976,76.034012 
z"/>
<path fill="#FFAA00" opacity="1.000000" stroke="none" 
	d="
M771.757812,235.062408 
	C770.300232,237.640305 768.485535,240.238754 766.356689,242.975632 
	C767.828674,240.437027 769.614685,237.759979 771.757812,235.062408 
z"/>
<path fill="#FFAA00" opacity="1.000000" stroke="none" 
	d="
M764.744019,244.035980 
	C764.308167,244.697723 763.502258,245.352905 762.369019,246.061783 
	C762.819092,245.420105 763.596558,244.724762 764.744019,244.035980 
z"/>
<path fill="#000000" opacity="1.000000" stroke="none" 
	d="
M461.116394,44.108833 
	C461.489594,43.695148 462.052155,43.472111 462.614716,43.249073 
	C462.462372,43.585739 462.310028,43.922405 461.940979,44.447876 
	C461.584717,44.524273 461.445221,44.411873 461.116394,44.108833 
z"/>
<path fill="#FFA900" opacity="1.000000" stroke="none" 
	d="
M406.890228,67.105675 
	C406.924164,67.323044 406.733704,67.607407 406.280914,67.860794 
	C406.157837,67.535408 406.373566,67.316360 406.890228,67.105675 
z"/>
<path fill="#000000" opacity="1.000000" stroke="none" 
	d="
M22.000000,412.982391 
	C22.000000,409.191925 22.000000,405.894379 22.000000,402.016693 
	C29.736988,402.016693 37.312473,401.697815 44.843719,402.137177 
	C49.310711,402.397766 52.260540,407.594910 51.999939,413.190582 
	C51.773399,418.054871 48.170956,421.754211 42.834991,421.941833 
	C36.072998,422.179596 29.296305,421.999329 22.000000,421.999329 
	C22.000000,418.997162 22.000000,416.236267 22.000000,412.982391 
z"/>
<path fill="#000000" opacity="1.000000" stroke="none" 
	d="
M274.090210,439.008911 
	C263.801422,429.667847 263.748383,417.149994 270.681824,406.909637 
	C274.634308,401.072021 286.192749,398.195343 294.301666,401.223145 
	C301.163818,403.785400 306.445068,410.307953 307.026733,418.558441 
	C308.087311,433.601257 301.100494,439.839447 291.915283,442.410065 
	C285.893646,444.095306 279.583405,443.770630 274.090210,439.008911 
z"/>
<path fill="#000000" opacity="1.000000" stroke="none" 
	d="
M126.583237,401.008453 
	C140.400940,408.075287 144.269684,422.450226 135.996262,434.847137 
	C131.173630,442.073364 123.813385,444.079834 115.883789,442.840149 
	C108.776443,441.728973 103.706459,437.660492 100.648315,430.432556 
	C96.445267,420.498627 100.900925,406.634491 108.462837,402.984741 
	C114.211075,400.210419 119.957466,398.928650 126.583237,401.008453 
z"/>
<path fill="#000000" opacity="1.000000" stroke="none" 
	d="
M193.109589,427.000000 
	C199.086227,427.000000 204.572968,426.979218 210.059448,427.005798 
	C215.678345,427.033051 218.965302,429.765808 219.000000,434.377686 
	C219.035202,439.057465 215.764465,441.962402 210.304092,441.990662 
	C203.024139,442.028351 195.743820,442.000000 188.234070,442.000000 
	C188.234070,436.949432 188.234070,432.219177 188.234070,427.000000 
	C189.739487,427.000000 191.179520,427.000000 193.109589,427.000000 
z"/>
<path fill="#000000" opacity="1.000000" stroke="none" 
	d="
M188.000000,407.980347 
	C188.000000,405.528717 188.000000,403.557465 188.000000,401.005890 
	C196.246704,401.005890 204.326965,400.678680 212.357544,401.167603 
	C215.550873,401.362061 218.142242,403.800781 217.992310,407.708740 
	C217.816574,412.288879 214.307693,413.689484 210.833282,413.876892 
	C203.417419,414.276917 195.965027,413.999268 188.000000,413.999268 
	C188.000000,411.983978 188.000000,410.222351 188.000000,407.980347 
z"/>
<path fill="#000000" opacity="1.000000" stroke="none" 
	d="
M451.661713,297.175323 
	C455.602448,300.760132 455.800507,304.846344 454.323364,309.124664 
	C452.732025,313.733582 448.456543,314.614502 444.492065,314.885223 
	C438.211884,315.314087 431.880920,314.999542 425.286499,314.999542 
	C425.286499,308.382324 425.286499,301.976898 425.286499,295.006592 
	C432.642914,295.006592 440.076996,294.916199 447.504791,295.092010 
	C448.803284,295.122772 450.075287,296.273193 451.661713,297.175323 
z"/>
<path fill="#000000" opacity="1.000000" stroke="none" 
	d="
M110.226456,207.969803 
	C109.390121,201.447342 109.036415,194.951157 108.658096,188.002945 
	C116.610634,188.002945 123.874352,187.820679 131.123093,188.071213 
	C135.482712,188.221878 138.771072,192.194855 138.999908,196.763229 
	C139.302017,202.794189 137.348083,206.336975 132.310410,206.883759 
	C125.154037,207.660553 117.913597,207.662842 110.226456,207.969803 
z"/>
<path fill="#000000" opacity="1.000000" stroke="none" 
	d="
M215.244049,209.618256 
	C216.335709,212.155487 217.217270,214.343750 218.217514,216.826645 
	C210.673157,216.826645 203.577881,216.826645 195.782242,216.826645 
	C198.915771,208.139481 201.933197,199.677185 205.077576,191.262329 
	C205.301025,190.664368 206.483109,190.056900 207.171585,190.107346 
	C207.816055,190.154541 208.717163,190.955948 208.955551,191.622162 
	C211.051559,197.479553 213.024536,203.380936 215.244049,209.618256 
z"/>
<path fill="#000000" opacity="1.000000" stroke="none" 
	d="
M129.017670,307.100739 
	C130.029663,304.164246 130.910477,301.579071 132.078629,299.131012 
	C132.497177,298.253815 133.575546,297.221313 134.415436,297.163086 
	C135.095245,297.115967 136.235168,298.291260 136.544022,299.149902 
	C139.459061,307.253693 142.239502,315.405884 145.154404,323.820221 
	C137.663864,323.820221 130.548447,323.820221 123.175156,323.820221 
	C125.126251,318.355591 127.063080,312.930878 129.017670,307.100739 
z"/>
</svg>