<?xml version="1.0" standalone="no"?>
<!DOCTYPE svg PUBLIC "-//W3C//DTD SVG 20010904//EN"
 "http://www.w3.org/TR/2001/REC-SVG-20010904/DTD/svg10.dtd">
<svg version="1.0" xmlns="http://www.w3.org/2000/svg"
 width="1200.000000pt" height="1950.000000pt" viewBox="0 0 1200.000000 1950.000000"
 preserveAspectRatio="xMidYMid meet">

<g transform="translate(0.000000,1950.000000) scale(0.100000,-0.100000)"
fill="#000000" stroke="none">
<path d="M1181 19489 c-311 -40 -585 -180 -806 -410 -181 -188 -299 -414 -352
-677 -17 -83 -18 -489 -18 -8647 0 -8215 1 -8563 18 -8644 59 -272 173 -493
349 -677 232 -241 519 -381 853 -414 78 -8 1468 -10 4840 -8 l4730 3 95 22
c381 89 667 283 866 588 100 155 166 320 201 505 17 91 18 466 18 8625 0 8159
-1 8534 -18 8625 -69 369 -277 688 -578 889 -148 100 -286 158 -489 207 -72
18 -275 19 -4860 20 -2632 1 -4814 -2 -4849 -7z m9667 -392 c184 -50 324 -128
451 -251 167 -161 265 -360 291 -591 8 -73 10 -2356 8 -8565 -3 -7858 -5
-8470 -20 -8530 -27 -103 -55 -178 -98 -257 -129 -240 -353 -413 -625 -484
l-90 -24 -4770 0 c-4615 0 -4773 1 -4850 19 -369 85 -638 349 -742 728 -17 59
-18 547 -21 8563 -2 6274 0 8521 8 8580 59 416 376 744 793 820 59 11 956 13
4837 11 4477 -1 4769 -2 4828 -19z"/>
<path d="M1235 18819 c-228 -38 -444 -217 -520 -429 -45 -124 -45 -137 -45
-1251 l0 -1059 5315 0 5315 0 0 1088 c0 1069 0 1089 -21 1162 -56 202 -210
375 -401 451 -132 52 155 49 -4896 48 -2584 -1 -4719 -5 -4747 -10z m3305
-559 c218 -63 386 -203 486 -405 76 -156 105 -323 85 -504 -42 -373 -277 -643
-626 -716 -101 -21 -286 -22 -381 -2 -388 83 -634 399 -634 815 0 433 239 741
640 827 99 22 334 13 430 -15z m5475 6 c74 -20 224 -91 230 -108 4 -11 -69
-265 -79 -276 -2 -1 -36 18 -76 44 -97 62 -167 86 -271 92 -131 7 -207 -26
-248 -105 -28 -54 -5 -141 49 -186 48 -41 93 -61 255 -117 181 -61 274 -110
341 -176 64 -64 101 -140 114 -236 44 -307 -158 -544 -492 -578 -92 -9 -227 2
-322 26 -88 22 -214 86 -268 136 l-46 43 45 160 c25 88 47 162 49 164 3 3 27
-21 56 -53 67 -76 174 -150 256 -177 93 -32 211 -32 268 -2 45 24 90 72 106
112 16 44 11 126 -11 169 -38 75 -82 102 -269 166 -150 51 -194 72 -278 132
-73 51 -115 101 -150 179 -49 106 -42 262 17 377 51 99 185 192 322 224 82 18
319 12 402 -10z m-7474 -24 c173 -57 288 -188 308 -349 23 -184 -56 -337 -214
-418 -31 -15 -52 -31 -48 -35 4 -3 25 -18 45 -33 54 -39 86 -117 162 -387 36
-129 81 -264 99 -300 17 -36 34 -68 35 -72 2 -5 -70 -8 -161 -8 -183 0 -176
-3 -215 76 -12 23 -53 146 -91 274 -98 329 -93 323 -322 329 l-159 3 0 -341 0
-341 -165 0 -165 0 0 816 0 815 413 -3 c393 -4 415 -5 478 -26z m3629 -647 l0
-675 375 0 375 0 0 -140 0 -140 -540 0 -540 0 0 815 0 815 165 0 165 0 0 -675z
m1730 0 l0 -675 375 0 375 0 0 -140 0 -140 -540 0 -540 0 0 815 0 815 165 0
165 0 0 -675z"/>
<path d="M4138 17991 c-31 -10 -77 -30 -101 -44 -148 -87 -237 -302 -224 -537
10 -169 52 -281 142 -378 98 -106 246 -155 405 -134 193 26 321 139 387 340
24 76 29 294 9 386 -37 165 -123 281 -256 345 -71 34 -81 36 -190 38 -91 2
-127 -1 -172 -16z"/>
<path d="M1980 17789 l0 -201 198 4 c172 4 203 7 243 25 56 25 86 65 98 130
19 99 -15 179 -93 218 -48 24 -57 25 -248 25 l-198 0 0 -201z"/>
<path d="M670 9755 l0 -6025 5315 0 5315 0 0 6025 0 6025 -5315 0 -5315 0 0
-6025z m4435 4945 c597 -40 1059 -174 1464 -425 337 -209 621 -516 811 -878
190 -362 266 -736 231 -1137 -60 -686 -411 -1277 -1017 -1713 -135 -96 -330
-212 -486 -286 l-137 -66 80 -95 c441 -519 830 -1258 1125 -2135 59 -175 120
-391 203 -720 126 -500 154 -583 247 -732 91 -148 270 -302 407 -351 l47 -17
0 -62 0 -63 -915 0 -915 0 1 63 0 62 82 40 c94 47 151 107 188 202 34 87 37
272 10 588 -32 368 -64 568 -141 877 -194 779 -534 1508 -943 2021 -42 53 -83
97 -91 97 -8 0 -77 -15 -153 -34 -522 -130 -1094 -200 -1816 -222 l-219 -7 7
-1491 c6 -1401 8 -1497 26 -1586 41 -208 152 -358 328 -442 l90 -43 1 -62 0
-63 -890 0 -890 0 0 63 1 62 90 43 c164 78 266 212 322 422 l22 85 0 3670 c0
3534 -1 3673 -18 3750 -52 224 -186 385 -374 451 l-53 19 0 62 0 63 1563 0
c936 0 1622 -4 1712 -10z m2807 -1349 c394 -102 814 -339 1097 -620 329 -327
541 -715 632 -1157 30 -146 37 -454 15 -637 -100 -817 -614 -1479 -1486 -1912
-74 -37 -137 -69 -138 -70 -2 -2 41 -57 95 -122 360 -433 671 -984 947 -1681
155 -390 246 -688 385 -1255 76 -310 112 -422 174 -542 104 -200 271 -362 440
-426 l57 -22 0 -63 0 -64 -910 0 -910 0 0 63 0 63 62 28 c86 40 168 123 197
200 47 127 48 276 1 751 -95 971 -507 2028 -1072 2751 l-78 101 -77 -18 c-43
-10 -81 -15 -84 -11 -4 4 -35 72 -69 152 -34 80 -79 177 -100 216 l-39 72 102
37 c679 249 1150 629 1401 1132 132 264 193 510 203 814 22 648 -234 1190
-707 1501 l-108 71 -6 61 c-16 137 -76 367 -140 529 -41 104 -48 100 116 58z
m-2682 -4108 l0 -346 208 7 209 7 60 -123 c34 -68 74 -162 91 -209 l30 -86
-60 -7 c-34 -3 -124 -6 -202 -6 -78 0 -185 -3 -239 -7 l-98 -6 3 -1516 3
-1516 22 -77 c59 -209 183 -357 358 -428 l55 -22 0 -64 0 -64 -885 0 -885 0 0
65 c0 54 3 67 18 71 119 39 262 159 319 269 43 81 79 212 92 328 8 65 11 719
11 2012 0 1053 3 1915 8 1915 68 2 648 98 773 129 41 11 82 19 92 20 16 1 17
-22 17 -346z"/>
<path d="M3170 12174 l0 -2037 208 7 c1629 54 2683 531 3125 1412 269 537 273
1222 11 1735 -226 443 -640 740 -1185 854 -273 56 -302 58 -1266 62 l-893 4 0
-2037z m2883 1206 c82 -102 159 -227 204 -330 l32 -75 -529 -3 -530 -2 0
-1064 0 -1064 -92 -40 c-204 -89 -517 -181 -765 -226 l-33 -5 0 1032 c0 583
-5 1075 -10 1131 -28 289 -135 471 -332 564 -45 22 -91 42 -100 45 -15 5 -18
18 -18 67 l0 60 1052 -2 1053 -3 68 -85z"/>
<path d="M670 2373 c1 -1125 1 -1141 49 -1261 78 -195 258 -352 471 -409 62
-17 317 -18 4800 -18 4475 0 4739 1 4800 17 117 32 226 95 310 178 84 84 129
154 168 262 l27 73 3 1108 2 1107 -5315 0 -5315 0 0 -1057z m3630 517 c123
-14 193 -34 295 -85 158 -77 263 -182 341 -340 58 -117 84 -222 91 -365 12
-260 -67 -481 -231 -645 -156 -155 -346 -229 -591 -229 -373 0 -665 199 -776
527 -118 352 -18 748 243 964 105 87 272 155 427 173 96 11 107 11 201 0z
m3821 -1 c262 -26 442 -143 543 -350 25 -52 42 -97 38 -100 -4 -4 -65 -32
-137 -62 l-130 -54 -37 70 c-47 89 -97 140 -174 178 -217 107 -493 23 -596
-182 -94 -186 -92 -490 3 -670 42 -78 131 -160 206 -191 50 -20 75 -23 188
-23 120 0 134 2 187 27 72 33 152 107 190 175 l29 52 82 -36 c45 -19 106 -45
134 -56 29 -12 53 -26 53 -30 0 -20 -93 -149 -142 -198 -143 -144 -310 -210
-533 -212 -154 -2 -248 19 -384 84 -88 43 -116 63 -186 132 -136 136 -211 295
-235 502 -57 485 234 887 685 944 99 12 102 12 216 0z m-5640 -37 c203 -68
318 -232 307 -437 -8 -146 -83 -258 -221 -330 l-54 -29 36 -24 c72 -49 95 -98
171 -366 77 -270 94 -321 125 -368 14 -21 25 -40 25 -43 0 -3 -76 -5 -168 -5
l-168 0 -31 53 c-20 33 -58 138 -101 284 -104 347 -94 337 -323 341 l-159 4 0
-341 0 -341 -165 0 -165 0 0 816 0 815 413 -3 c395 -3 415 -4 478 -26z m3494
-296 c88 -179 162 -325 165 -325 3 -1 77 145 165 323 l160 325 188 0 c103 1
187 -1 187 -4 0 -4 -119 -231 -265 -506 l-265 -500 0 -310 0 -309 -165 0 -165
0 0 301 0 300 -254 482 c-139 265 -261 497 -270 515 l-17 32 189 0 188 0 159
-324z m4495 184 l0 -140 -375 0 -375 0 0 -185 0 -185 275 0 275 0 0 -140 0
-140 -275 0 -275 0 0 -210 0 -210 375 0 375 0 0 -140 0 -140 -540 0 -540 0 0
815 0 815 540 0 540 0 0 -140z"/>
<path d="M4093 2605 c-139 -30 -248 -119 -308 -250 -96 -206 -79 -491 38 -666
83 -126 212 -189 382 -189 171 0 299 63 383 190 121 180 131 486 24 696 -55
107 -171 192 -299 219 -83 18 -138 18 -220 0z"/>
<path d="M1920 2405 l0 -195 195 0 c154 0 204 3 233 16 76 31 112 89 112 179
0 90 -36 148 -112 179 -29 13 -79 16 -233 16 l-195 0 0 -195z"/>
</g>
</svg>
