<?xml version="1.0" standalone="no"?>
<!DOCTYPE svg PUBLIC "-//W3C//DTD SVG 20010904//EN"
 "http://www.w3.org/TR/2001/REC-SVG-20010904/DTD/svg10.dtd">
<svg version="1.0" xmlns="http://www.w3.org/2000/svg"
 width="1373.000000pt" height="2048.000000pt" viewBox="0 0 1373.000000 2048.000000"
 preserveAspectRatio="xMidYMid meet">

<g transform="translate(0.000000,2048.000000) scale(0.100000,-0.100000)"
fill="#000000" stroke="none">
<path d="M1372 19137 l-912 -912 0 -1975 0 -1975 907 -907 908 -908 2557 0
2558 0 0 -1480 0 -1480 -320 0 -320 0 0 -1160 0 -1160 663 0 662 0 913 913
912 912 0 1970 0 1970 -913 913 -912 912 -2553 0 -2552 0 0 1480 0 1480 2210
0 2210 0 0 -900 0 -900 1253 2 1252 3 3 1145 2 1145 -912 912 -913 913 -2895
0 -2895 0 -913 -913z"/>
<path d="M4843 11228 l-913 -911 0 -4036 0 -4036 908 -908 907 -907 2895 0
2895 0 913 913 912 912 0 1148 0 1147 -1252 -2 -1253 -3 -3 -897 -2 -898
-2210 0 -2210 0 0 3535 0 3535 320 0 320 0 0 1160 0 1160 -657 0 -658 0 -912
-912z"/>
<path d="M10220 10980 l0 -1160 315 0 315 0 2 -897 3 -898 1253 -3 1252 -2 0
1147 0 1148 -913 913 -912 912 -658 0 -657 0 0 -1160z"/>
<path d="M460 10152 l0 -1147 913 -913 912 -912 663 0 662 0 0 1160 0 1160
-320 0 -320 0 0 900 0 900 -1255 0 -1255 0 0 -1148z"/>
</g>
</svg>
